<?xml version="1.0" encoding="UTF-8"?>
<svg xmlns="http://www.w3.org/2000/svg" xmlns:xlink="http://www.w3.org/1999/xlink" width="402.12" height="628.32" viewBox="-28.56 -599.76 402.12 628.32">
<defs>
<style type="text/css">
.l65d44 {stroke: #2B3D26; fill: #2B3D26; fill-opacity: 0.5;}
.l235d4 {stroke: #0067A5; fill: #0067A5; fill-opacity: 0.5;}
.l67d44 {stroke: #875692; fill: #875692; fill-opacity: 0.5;}
.l69d44 {stroke: #A1CAF1; fill: #A1CAF1; fill-opacity: 0.5;}
.l122d16 {stroke: #F6A600; fill: #F6A600; fill-opacity: 0.5;}
.l93d44 {stroke: #008856; fill: #008856; fill-opacity: 0.5;}
.l78d44 {stroke: #F6A600; fill: #F6A600; fill-opacity: 0.5;}
.l236d0 {stroke: #E25822; fill: #E25822; fill-opacity: 0.5;}
.l66d44 {stroke: #F3C300; fill: #F3C300; fill-opacity: 0.5;}
.l68d44 {stroke: #F38400; fill: #F38400; fill-opacity: 0.5;}
.l95d20 {stroke: #654522; fill: #654522; fill-opacity: 0.5;}
.l70d44 {stroke: #BE0032; fill: #BE0032; fill-opacity: 0.5;}
.l69d16 {stroke: #2B3D26; fill: #2B3D26; fill-opacity: 0.5;}
.l68d16 {stroke: #E25822; fill: #E25822; fill-opacity: 0.5;}
.l67d20 {stroke: #0067A5; fill: #0067A5; fill-opacity: 0.5;}
.l71d16 {stroke: #875692; fill: #875692; fill-opacity: 0.5;}
.l69d20 {stroke: #604E97; fill: #604E97; fill-opacity: 0.5;}
.l68d20 {stroke: #F99379; fill: #F99379; fill-opacity: 0.5;}
.l71d20 {stroke: #B3446C; fill: #B3446C; fill-opacity: 0.5;}
.l70d20 {stroke: #F6A600; fill: #F6A600; fill-opacity: 0.5;}
.l94d20 {stroke: #8DB600; fill: #8DB600; fill-opacity: 0.5;}
.l64d20 {stroke: #848482; fill: #848482; fill-opacity: 0.5;}
.l81d4 {stroke: #882D17; fill: #882D17; fill-opacity: 0.5;}
.l64d16 {stroke: #DCD300; fill: #DCD300; fill-opacity: 0.5;}
.l65d20 {stroke: #008856; fill: #008856; fill-opacity: 0.5;}
.l66d20 {stroke: #E68FAC; fill: #E68FAC; fill-opacity: 0.5;}
.l67d16 {stroke: #654522; fill: #654522; fill-opacity: 0.5;}
.l64t5 {stroke: none; fill: #604E97;}
.l67t5 {stroke: none; fill: #DCD300;}
.l68t5 {stroke: none; fill: #882D17;}
.l69t5 {stroke: none; fill: #8DB600;}
.l71t5 {stroke: none; fill: #E25822;}
.l83t44 {stroke: none; fill: #654522;}
.l64t59 {stroke: none; fill: #B3446C;}
</style>
<g id="sky130_fd_sc_hd__tapvpwrvgnd_1">
<polygon id="00000171590D3C10" class="l68d16" points="1.05,-0.9 3.6,-0.9 3.6,1 1.05,1"/>
<polygon id="00000171590D3D60" class="l68d16" points="1.1,26.2 3.75,26.2 3.75,27.65 1.1,27.65"/>
<polygon id="00000171590D4460" class="l94d20" points="0,1.9 4.6,1.9 4.6,9.75 0,9.75"/>
<polygon id="00000171590D3CF0" class="l94d20" points="0,25.3 4.6,25.3 4.6,29.1 0,29.1"/>
<polygon id="00000171590D3C80" class="l93d44" points="0,-1.9 4.6,-1.9 4.6,1.9 0,1.9"/>
<polygon id="00000171590D3E40" class="l93d44" points="0,13.95 4.6,13.95 4.6,25.3 0,25.3"/>
<polygon id="00000171590D44D0" class="l64d20" points="-1.9,13.05 6.5,13.05 6.5,29.1 -1.9,29.1"/>
<polygon id="00000171590D48C0" class="l66d44" points="1.45,5.55 3.15,5.55 3.15,7.25 1.45,7.25"/>
<polygon id="00000171590D3EB0" class="l66d44" points="1.45,16.45 3.15,16.45 3.15,18.15 1.45,18.15"/>
<polygon id="0000017158EEECB0" class="l66d44" points="1.45,21.1 3.15,21.1 3.15,22.8 1.45,22.8"/>
<polygon id="0000017158EEE620" class="l65d44" points="1.45,3.2 3.15,3.2 3.15,8.45 1.45,8.45"/>
<polygon id="0000017158EEF110" class="l65d44" points="1.45,15.25 3.15,15.25 3.15,24 1.45,24"/>
<polygon id="0000017158EEE9A0" class="l68d20" points="0,-2.4 4.6,-2.4 4.6,2.4 0,2.4"/>
<polygon id="0000017158EEEEE0" class="l68d20" points="0,24.8 4.6,24.8 4.6,29.6 0,29.6"/>
<polygon id="0000017158EEEB60" class="l67d44" points="1.45,-0.85 3.15,-0.85 3.15,0.85 1.45,0.85"/>
<polygon id="0000017158EEE540" class="l67d44" points="1.45,26.35 3.15,26.35 3.15,28.05 1.45,28.05"/>
<polygon id="0000017158EEED20" class="l67d20" points="0.85,0 3.75,0 3.75,8.1 0.85,8.1"/>
<polygon id="0000017158EEEA10" class="l67d20" points="0.85,14.7 3.75,14.7 3.75,27.2 0.85,27.2"/>
<polygon id="0000017158EEE700" class="l67d20" points="0,26.35 4.6,26.35 4.6,28.05 0,28.05"/>
<polygon id="0000017158EEE690" class="l67d20" points="0,-0.85 4.6,-0.85 4.6,0.85 0,0.85"/>
<polygon id="0000017158EEED90" class="l78d44" points="0,12.5 4.6,12.5 4.6,27.2 0,27.2"/>
<polygon id="0000017158EEEC40" class="l81d4" points="0,0 4.6,0 4.6,27.2 0,27.2"/>
<text id="0000017158EECC20" class="l68t5" text-anchor="middle" dominant-baseline="central" transform="translate(2.3 27.2) scale(0.1) scale(1 -1)">VPWR</text>
<text id="0000017158EEE180" class="l68t5" text-anchor="middle" dominant-baseline="central" transform="translate(2.3 0) scale(0.1) scale(1 -1)">VGND</text>
<text id="0000017158EED1C0" class="l83t44" text-anchor="start" dominant-baseline="text-before-edge" transform="translate(0 0) rotate(90) scale(0.1) scale(1 -1)">tapvpwrvgnd_1</text>
</g>
<g id="sky130_fd_sc_hd__decap_8">
<polygon id="0000017159257CE0" class="l236d0" points="0,0 36.8,0 36.8,27.2 0,27.2"/>
<polygon id="00000171592585A0" class="l68d16" points="1.45,26.35 3.15,26.35 3.15,28.05 1.45,28.05"/>
<polygon id="0000017159257D50" class="l68d16" points="1.45,-0.85 3.15,-0.85 3.15,0.85 1.45,0.85"/>
<polygon id="0000017159257EA0" class="l64d16" points="1.45,26.35 3.15,26.35 3.15,28.05 1.45,28.05"/>
<polygon id="00000171592587D0" class="l122d16" points="1.45,-0.85 3.15,-0.85 3.15,0.85 1.45,0.85"/>
<polygon id="0000017159258840" class="l67d20" points="36.8,0.85 35.95,0.85 35.95,8.55 17.35,8.55 17.35,13.75 0.85,13.75 0.85,0.85 0,0.85 0,-0.85 36.8,-0.85"/>
<polygon id="00000171592579D0" class="l67d20" points="36.8,28.05 0,28.05 0,26.35 0.85,26.35 0.85,15.45 19.05,15.45 19.05,10.25 35.95,10.25 35.95,26.35 36.8,26.35"/>
<polygon id="0000017159257A40" class="l81d4" points="0,0 36.8,0 36.8,27.2 0,27.2"/>
<polygon id="0000017159258300" class="l65d20" points="1.35,16.15 35.45,16.15 35.45,24.85 1.35,24.85"/>
<polygon id="0000017159257AB0" class="l65d20" points="1.35,2.35 35.45,2.35 35.45,7.85 1.35,7.85"/>
<polygon id="0000017159257DC0" class="l78d44" points="0,12.5 36.8,12.5 36.8,27.2 0,27.2"/>
<polygon id="0000017159257B90" class="l93d44" points="0,-1.9 36.8,-1.9 36.8,10.15 0,10.15"/>
<polygon id="0000017159257C00" class="l64d20" points="-1.9,13.05 38.7,13.05 38.7,29.1 -1.9,29.1"/>
<polygon id="0000017159257E30" class="l94d20" points="0,14.85 36.8,14.85 36.8,29.1 0,29.1"/>
<polygon id="0000017159257F10" class="l67d44" points="1.45,26.35 3.15,26.35 3.15,28.05 1.45,28.05"/>
<polygon id="0000017159257F80" class="l67d44" points="1.45,-0.85 3.15,-0.85 3.15,0.85 1.45,0.85"/>
<polygon id="0000017159257FF0" class="l67d44" points="6.05,26.35 7.75,26.35 7.75,28.05 6.05,28.05"/>
<polygon id="0000017159258140" class="l67d44" points="6.05,-0.85 7.75,-0.85 7.75,0.85 6.05,0.85"/>
<polygon id="00000171592581B0" class="l67d44" points="10.65,26.35 12.35,26.35 12.35,28.05 10.65,28.05"/>
<polygon id="00000171590D42A0" class="l67d44" points="10.65,-0.85 12.35,-0.85 12.35,0.85 10.65,0.85"/>
<polygon id="00000171590D4150" class="l67d44" points="15.25,26.35 16.95,26.35 16.95,28.05 15.25,28.05"/>
<polygon id="00000171590D3F90" class="l67d44" points="15.25,-0.85 16.95,-0.85 16.95,0.85 15.25,0.85"/>
<polygon id="00000171590D3BA0" class="l67d44" points="19.85,26.35 21.55,26.35 21.55,28.05 19.85,28.05"/>
<polygon id="00000171590D47E0" class="l67d44" points="19.85,-0.85 21.55,-0.85 21.55,0.85 19.85,0.85"/>
<polygon id="00000171590D3A50" class="l67d44" points="24.45,26.35 26.15,26.35 26.15,28.05 24.45,28.05"/>
<polygon id="00000171590D39E0" class="l67d44" points="24.45,-0.85 26.15,-0.85 26.15,0.85 24.45,0.85"/>
<polygon id="00000171590D41C0" class="l67d44" points="29.05,26.35 30.75,26.35 30.75,28.05 29.05,28.05"/>
<polygon id="00000171590D4850" class="l67d44" points="29.05,-0.85 30.75,-0.85 30.75,0.85 29.05,0.85"/>
<polygon id="00000171590D4770" class="l67d44" points="33.65,26.35 35.35,26.35 35.35,28.05 33.65,28.05"/>
<polygon id="00000171590D3AC0" class="l67d44" points="33.65,-0.85 35.35,-0.85 35.35,0.85 33.65,0.85"/>
<polygon id="00000171590D4540" class="l66d20" points="32.85,26.15 3.95,26.15 3.95,11.25 17.15,11.25 17.15,14.85 32.85,14.85"/>
<polygon id="00000171590D4000" class="l66d20" points="32.85,12.75 19.25,12.75 19.25,9.15 3.95,9.15 3.95,1.05 32.85,1.05"/>
<polygon id="00000171590D4070" class="l66d44" points="1.75,22.55 3.45,22.55 3.45,24.25 1.75,24.25"/>
<polygon id="00000171590D4230" class="l66d44" points="1.75,17.45 3.45,17.45 3.45,19.15 1.75,19.15"/>
<polygon id="00000171590D4310" class="l66d44" points="1.75,3.9 3.45,3.9 3.45,5.6 1.75,5.6"/>
<polygon id="00000171590D3F20" class="l66d44" points="4.75,12.05 6.45,12.05 6.45,13.75 4.75,13.75"/>
<polygon id="00000171590D4690" class="l66d44" points="9.7,12.05 11.4,12.05 11.4,13.75 9.7,13.75"/>
<polygon id="00000171590D4380" class="l66d44" points="14.65,12.05 16.35,12.05 16.35,13.75 14.65,13.75"/>
<polygon id="00000171590D45B0" class="l66d44" points="33.35,3.9 35.05,3.9 35.05,5.6 33.35,5.6"/>
<polygon id="00000171590D4620" class="l66d44" points="20.05,10.25 21.75,10.25 21.75,11.95 20.05,11.95"/>
<polygon id="00000171590D4700" class="l66d44" points="25.2,10.25 26.9,10.25 26.9,11.95 25.2,11.95"/>
<polygon id="00000171590D3B30" class="l66d44" points="30.35,10.25 32.05,10.25 32.05,11.95 30.35,11.95"/>
<polygon id="00000171590D40E0" class="l66d44" points="33.35,22.55 35.05,22.55 35.05,24.25 33.35,24.25"/>
<polygon id="00000171590D3DD0" class="l66d44" points="33.35,17.45 35.05,17.45 35.05,19.15 33.35,19.15"/>
<polygon id="00000171590D43F0" class="l95d20" points="36.8,13.45 17.35,13.45 17.35,14.75 0,14.75 0,9.75 19.05,9.75 19.05,9.25 36.8,9.25"/>
<polygon id="00000171592BB4C0" class="l68d20" points="0,29.6 0,24.8 36.8,24.8 36.8,29.6"/>
<polygon id="00000171592BA7A0" class="l68d20" points="0,2.4 0,-2.4 36.8,-2.4 36.8,2.4"/>
<text id="0000017156DA2AC0" class="l68t5" text-anchor="middle" dominant-baseline="central" transform="translate(2.3 27.2) scale(0.1) scale(1 -1)">VPWR</text>
<text id="0000017156DA3DE0" class="l68t5" text-anchor="middle" dominant-baseline="central" transform="translate(2.3 0) scale(0.1) scale(1 -1)">VGND</text>
<text id="0000017156DA2B50" class="l64t5" text-anchor="middle" dominant-baseline="central" transform="translate(2.3 27.2) scale(0.1) scale(1 -1)">VPB</text>
<text id="0000017156DA2C70" class="l64t59" text-anchor="middle" dominant-baseline="central" transform="translate(2.3 0) scale(0.1) scale(1 -1)">VNB</text>
<text id="0000017156DA2EB0" class="l83t44" text-anchor="start" dominant-baseline="text-before-edge" transform="translate(0 0) rotate(90) scale(0.1) scale(1 -1)">decap_8</text>
</g>
<g id="sky130_fd_sc_hd__buf_1">
<polygon id="0000017158E3D190" class="l236d0" points="0,0 13.8,0 13.8,27.2 0,27.2"/>
<polygon id="0000017158E3E000" class="l94d20" points="0,14.2 13.8,14.2 13.8,29.1 0,29.1"/>
<polygon id="0000017158E3E070" class="l68d16" points="1.55,-0.85 3.25,-0.85 3.25,0.85 1.55,0.85"/>
<polygon id="0000017158E3D200" class="l68d16" points="1.45,26.35 3.15,26.35 3.15,28.05 1.45,28.05"/>
<polygon id="0000017158E3D660" class="l64d16" points="1.45,26.35 3.15,26.35 3.15,28.05 1.45,28.05"/>
<polygon id="0000017158E3D890" class="l122d16" points="1.55,-0.85 3.25,-0.85 3.25,0.85 1.55,0.85"/>
<polygon id="0000017158E3D970" class="l67d20" points="12.95,24.65 10.25,24.65 10.25,15.6 11.15,15.6 11.15,7.6 10.35,7.6 10.35,2.55 12.95,2.55"/>
<polygon id="0000017158E3E1C0" class="l67d20" points="13.8,0.85 8.55,0.85 8.55,4.65 5.25,4.65 5.25,0.85 0,0.85 0,-0.85 13.8,-0.85"/>
<polygon id="0000017158E3E230" class="l67d20" points="9.45,13.9 8.4,13.9 8.4,17.05 3.45,17.05 3.45,24.65 1.65,24.65 1.65,15.35 6.7,15.35 6.7,8.05 1.75,8.05 1.75,2.55 3.45,2.55 3.45,6.35 8.4,6.35 8.4,10.6 9.45,10.6"/>
<polygon id="0000017158E3EEE0" class="l67d20" points="1.05,9.85 4.45,9.85 4.45,13.55 1.05,13.55"/>
<polygon id="0000017158E3ED20" class="l67d20" points="13.8,28.05 0,28.05 0,26.35 5.25,26.35 5.25,18.75 8.55,18.75 8.55,26.35 13.8,26.35"/>
<polygon id="0000017158E3EE00" class="l95d20" points="0,9.75 13.8,9.75 13.8,14.1 0,14.1"/>
<polygon id="0000017158E3EE70" class="l78d44" points="0,12.5 13.8,12.5 13.8,27.2 0,27.2"/>
<polygon id="0000017158E3EC40" class="l93d44" points="0,-1.9 13.8,-1.9 13.8,10.15 0,10.15"/>
<polygon id="0000017158E3EBD0" class="l64d20" points="-1.9,13.05 15.7,13.05 15.7,29.1 -1.9,29.1"/>
<polygon id="0000017158E3ECB0" class="l81d4" points="0,0 13.8,0 13.8,27.2 0,27.2"/>
<polygon id="0000017158E3ED90" class="l67d44" points="10.65,-0.85 12.35,-0.85 12.35,0.85 10.65,0.85"/>
<polygon id="0000017159BED760" class="l67d44" points="10.65,26.35 12.35,26.35 12.35,28.05 10.65,28.05"/>
<polygon id="0000017159BEE800" class="l67d44" points="6.05,-0.85 7.75,-0.85 7.75,0.85 6.05,0.85"/>
<polygon id="0000017159BEEB10" class="l67d44" points="6.05,26.35 7.75,26.35 7.75,28.05 6.05,28.05"/>
<polygon id="0000017159BECFF0" class="l67d44" points="1.45,-0.85 3.15,-0.85 3.15,0.85 1.45,0.85"/>
<polygon id="0000017159BEDC30" class="l67d44" points="1.45,26.35 3.15,26.35 3.15,28.05 1.45,28.05"/>
<polygon id="0000017159BEE870" class="l67d16" points="10.55,4.25 12.25,4.25 12.25,5.95 10.55,5.95"/>
<polygon id="0000017159BEE790" class="l67d16" points="10.55,17.85 12.25,17.85 12.25,19.55 10.55,19.55"/>
<polygon id="0000017159BEEB80" class="l67d16" points="10.55,21.25 12.25,21.25 12.25,22.95 10.55,22.95"/>
<polygon id="0000017159BEE250" class="l67d16" points="1.45,11.05 3.15,11.05 3.15,12.75 1.45,12.75"/>
<polygon id="0000017159BED920" class="l67d16" points="1.45,26.35 3.15,26.35 3.15,28.05 1.45,28.05"/>
<polygon id="0000017159BED990" class="l67d16" points="1.55,-0.85 3.25,-0.85 3.25,0.85 1.55,0.85"/>
<polygon id="0000017159BEDA00" class="l65d20" points="1.35,2.35 12.45,2.35 12.45,7.55 1.35,7.55"/>
<polygon id="0000017159BEDD10" class="l65d20" points="1.35,16.95 12.45,16.95 12.45,24.85 1.35,24.85"/>
<polygon id="0000017159BEDAE0" class="l66d44" points="10.35,4.45 12.05,4.45 12.05,6.15 10.35,6.15"/>
<polygon id="0000017159BED7D0" class="l66d44" points="10.35,18.1 12.05,18.1 12.05,19.8 10.35,19.8"/>
<polygon id="0000017159BEE4F0" class="l66d44" points="10.35,22.15 12.05,22.15 12.05,23.85 10.35,23.85"/>
<polygon id="0000017159BEE8E0" class="l66d44" points="7.75,11.4 9.45,11.4 9.45,13.1 7.75,13.1"/>
<polygon id="0000017159BEE950" class="l66d44" points="6.05,2.95 7.75,2.95 7.75,4.65 6.05,4.65"/>
<polygon id="0000017159BEEAA0" class="l66d44" points="6.05,18.75 7.75,18.75 7.75,20.45 6.05,20.45"/>
<polygon id="0000017159BED5A0" class="l66d44" points="6.05,22.15 7.75,22.15 7.75,23.85 6.05,23.85"/>
<polygon id="0000017159BEDD80" class="l66d44" points="1.85,10.75 3.55,10.75 3.55,12.45 1.85,12.45"/>
<polygon id="0000017159BEE1E0" class="l66d44" points="1.75,3.6 3.45,3.6 3.45,5.3 1.75,5.3"/>
<polygon id="0000017159BED220" class="l66d44" points="1.75,18.75 3.45,18.75 3.45,20.45 1.75,20.45"/>
<polygon id="0000017159BEE560" class="l66d44" points="1.75,22.15 3.45,22.15 3.45,23.85 1.75,23.85"/>
<polygon id="0000017159BEE9C0" class="l66d20" points="9.95,13.9 9.85,13.9 9.85,26.15 8.35,26.15 8.35,13.9 7.25,13.9 7.25,10.6 8.35,10.6 8.35,1.05 9.85,1.05 9.85,10.6 9.95,10.6"/>
<polygon id="0000017159BEDCA0" class="l66d20" points="5.45,9.5 5.15,9.5 5.15,15 5.45,15 5.45,26.15 3.95,26.15 3.95,16.2 3.65,16.2 3.65,13.25 1.35,13.25 1.35,9.95 3.65,9.95 3.65,8.3 3.95,8.3 3.95,1.05 5.45,1.05"/>
<polygon id="00000171592BAF10" class="l68d20" points="0,2.4 0,-2.4 13.8,-2.4 13.8,2.4"/>
<polygon id="00000171592BB4C0" class="l68d20" points="0,29.6 0,24.8 13.8,24.8 13.8,29.6"/>
<text id="0000017158EEC5F0" class="l68t5" text-anchor="middle" dominant-baseline="central" transform="translate(2.3 0) scale(0.1) scale(1 -1)">VGND</text>
<text id="0000017158EECF80" class="l68t5" text-anchor="middle" dominant-baseline="central" transform="translate(2.3 27.2) scale(0.1) scale(1 -1)">VPWR</text>
<text id="0000017158EEDB50" class="l67t5" text-anchor="middle" dominant-baseline="central" transform="translate(2.3 27.2) scale(0.1) scale(1 -1)">VPWR</text>
<text id="0000017158EED0A0" class="l67t5" text-anchor="middle" dominant-baseline="central" transform="translate(2.3 0) scale(0.1) scale(1 -1)">VGND</text>
<text id="0000017158EED250" class="l67t5" text-anchor="middle" dominant-baseline="central" transform="translate(11.4 5.1) scale(0.1) scale(1 -1)">X</text>
<text id="0000017158EEDC70" class="l67t5" text-anchor="middle" dominant-baseline="central" transform="translate(11.4 18.7) scale(0.1) scale(1 -1)">X</text>
<text id="0000017158EED2E0" class="l67t5" text-anchor="middle" dominant-baseline="central" transform="translate(11.4 22.1) scale(0.1) scale(1 -1)">X</text>
<text id="0000017158EEC710" class="l67t5" text-anchor="middle" dominant-baseline="central" transform="translate(2.3 11.9) scale(0.1) scale(1 -1)">A</text>
<text id="0000017158EED640" class="l64t5" text-anchor="middle" dominant-baseline="central" transform="translate(2.3 27.2) scale(0.1) scale(1 -1)">VPB</text>
<text id="0000017158EEDF40" class="l64t59" text-anchor="middle" dominant-baseline="central" transform="translate(2.3 0) scale(0.1) scale(1 -1)">VNB</text>
<text id="0000017158EECD40" class="l83t44" text-anchor="start" dominant-baseline="text-before-edge" transform="translate(0 0) rotate(90) scale(0.1) scale(1 -1)">buf_1</text>
</g>
<g id="sky130_ef_sc_hd__decap_12">
<polygon id="0000017159029A40" class="l236d0" points="0,0 55.2,0 55.2,27.2 0,27.2"/>
<polygon id="0000017159029420" class="l68d16" points="1.45,-0.85 3.15,-0.85 3.15,0.85 1.45,0.85"/>
<polygon id="0000017159029C00" class="l68d16" points="1.45,26.35 3.15,26.35 3.15,28.05 1.45,28.05"/>
<polygon id="0000017159029570" class="l64d16" points="1.45,26.35 3.15,26.35 3.15,28.05 1.45,28.05"/>
<polygon id="0000017159029880" class="l122d16" points="1.45,-0.85 3.15,-0.85 3.15,0.85 1.45,0.85"/>
<polygon id="00000171590291F0" class="l65d20" points="1.35,16.15 53.85,16.15 53.85,24.85 1.35,24.85"/>
<polygon id="0000017159029AB0" class="l65d20" points="1.35,2.35 53.85,2.35 53.85,7.85 1.35,7.85"/>
<polygon id="0000017159029D50" class="l78d44" points="0,12.5 55.2,12.5 55.2,27.2 0,27.2"/>
<polygon id="0000017159029180" class="l93d44" points="0,-1.9 55.2,-1.9 55.2,10.15 0,10.15"/>
<polygon id="0000017159029C70" class="l64d20" points="-1.9,13.05 57.1,13.05 57.1,29.1 -1.9,29.1"/>
<polygon id="0000017159029340" class="l94d20" points="0,14.85 55.2,14.85 55.2,29.1 0,29.1"/>
<polygon id="00000171590295E0" class="l81d4" points="0,0 55.2,0 55.2,27.2 0,27.2"/>
<polygon id="00000171590290A0" class="l67d44" points="24.45,-0.85 26.15,-0.85 26.15,0.85 24.45,0.85"/>
<polygon id="0000017159029030" class="l67d44" points="29.05,26.35 30.75,26.35 30.75,28.05 29.05,28.05"/>
<polygon id="00000171590297A0" class="l67d44" points="1.45,26.35 3.15,26.35 3.15,28.05 1.45,28.05"/>
<polygon id="0000017159029B90" class="l67d44" points="1.45,-0.85 3.15,-0.85 3.15,0.85 1.45,0.85"/>
<polygon id="0000017159029960" class="l67d44" points="6.05,26.35 7.75,26.35 7.75,28.05 6.05,28.05"/>
<polygon id="0000017159029650" class="l67d44" points="6.05,-0.85 7.75,-0.85 7.75,0.85 6.05,0.85"/>
<polygon id="0000017159029CE0" class="l67d44" points="10.65,26.35 12.35,26.35 12.35,28.05 10.65,28.05"/>
<polygon id="0000017159029810" class="l67d44" points="10.65,-0.85 12.35,-0.85 12.35,0.85 10.65,0.85"/>
<polygon id="00000171590298F0" class="l67d44" points="15.25,26.35 16.95,26.35 16.95,28.05 15.25,28.05"/>
<polygon id="00000171590296C0" class="l67d44" points="15.25,-0.85 16.95,-0.85 16.95,0.85 15.25,0.85"/>
<polygon id="00000171590292D0" class="l67d44" points="19.85,26.35 21.55,26.35 21.55,28.05 19.85,28.05"/>
<polygon id="0000017159029F10" class="l67d44" points="19.85,-0.85 21.55,-0.85 21.55,0.85 19.85,0.85"/>
<polygon id="0000017159029260" class="l67d44" points="24.45,26.35 26.15,26.35 26.15,28.05 24.45,28.05"/>
<polygon id="0000017159029DC0" class="l67d44" points="29.05,-0.85 30.75,-0.85 30.75,0.85 29.05,0.85"/>
<polygon id="0000017159029110" class="l67d44" points="33.65,26.35 35.35,26.35 35.35,28.05 33.65,28.05"/>
<polygon id="0000017159029E30" class="l67d44" points="33.65,-0.85 35.35,-0.85 35.35,0.85 33.65,0.85"/>
<polygon id="00000171590293B0" class="l67d44" points="38.25,26.35 39.95,26.35 39.95,28.05 38.25,28.05"/>
<polygon id="0000017159029730" class="l67d44" points="38.25,-0.85 39.95,-0.85 39.95,0.85 38.25,0.85"/>
<polygon id="0000017159029EA0" class="l67d44" points="42.85,26.35 44.55,26.35 44.55,28.05 42.85,28.05"/>
<polygon id="00000171590299D0" class="l67d44" points="42.85,-0.85 44.55,-0.85 44.55,0.85 42.85,0.85"/>
<polygon id="0000017159029B20" class="l67d44" points="47.45,26.35 49.15,26.35 49.15,28.05 47.45,28.05"/>
<polygon id="0000017137F786C0" class="l67d44" points="47.45,-0.85 49.15,-0.85 49.15,0.85 47.45,0.85"/>
<polygon id="0000017158E55E90" class="l67d44" points="52.05,26.35 53.75,26.35 53.75,28.05 52.05,28.05"/>
<polygon id="0000017158E56130" class="l67d44" points="52.05,-0.85 53.75,-0.85 53.75,0.85 52.05,0.85"/>
<polygon id="0000017158E55950" class="l95d20" points="0,9.25 55.2,9.25 55.2,14.75 0,14.75"/>
<polygon id="0000017158E55790" class="l66d20" points="51.25,26.15 3.95,26.15 3.95,11.25 26.45,11.25 26.45,14.85 51.25,14.85"/>
<polygon id="0000017158E55BF0" class="l66d20" points="51.25,12.75 28.55,12.75 28.55,9.15 3.95,9.15 3.95,1.05 51.25,1.05"/>
<polygon id="0000017158E55C60" class="l67d20" points="16.7,6.3 20.1,6.3 20.1,14.6 16.7,14.6"/>
<polygon id="0000017158E55CD0" class="l67d20" points="0,26.35 55.2,26.35 55.2,28.05 0,28.05"/>
<polygon id="0000017158E558E0" class="l67d20" points="0.85,22 54.3,22 54.3,26.35 0.85,26.35"/>
<polygon id="0000017158E55F00" class="l67d20" points="0,-0.85 55.2,-0.85 55.2,0.85 0,0.85"/>
<polygon id="0000017158E55870" class="l67d20" points="34.9,9.5 38.4,9.5 38.4,22 34.9,22"/>
<polygon id="0000017158E55F70" class="l67d20" points="0.85,0.85 54.3,0.85 54.3,6.3 0.85,6.3"/>
<polygon id="0000017158E55D40" class="l66d44" points="1.75,22.55 3.45,22.55 3.45,24.25 1.75,24.25"/>
<polygon id="0000017158E564B0" class="l66d44" points="51.75,22.55 53.45,22.55 53.45,24.25 51.75,24.25"/>
<polygon id="0000017158E559C0" class="l66d44" points="51.75,3.9 53.45,3.9 53.45,5.6 51.75,5.6"/>
<polygon id="0000017158E55DB0" class="l66d44" points="35.75,10.25 37.45,10.25 37.45,11.95 35.75,11.95"/>
<polygon id="0000017158E55E20" class="l66d44" points="1.75,3.9 3.45,3.9 3.45,5.6 1.75,5.6"/>
<polygon id="0000017158E55800" class="l66d44" points="17.55,12.05 19.25,12.05 19.25,13.75 17.55,13.75"/>
<polygon id="00000171592BA0A0" class="l68d20" points="0,29.6 0,24.8 55.2,24.8 55.2,29.6"/>
<polygon id="00000171592BA3B0" class="l68d20" points="0,2.4 0,-2.4 55.2,-2.4 55.2,2.4"/>
<text id="00000171592D7030" class="l68t5" text-anchor="middle" dominant-baseline="central" transform="translate(2.3 0) scale(0.1) scale(1 -1)">VGND</text>
<text id="00000171592D62B0" class="l68t5" text-anchor="middle" dominant-baseline="central" transform="translate(2.3 27.2) scale(0.1) scale(1 -1)">VPWR</text>
<text id="00000171592D6610" class="l64t5" text-anchor="middle" dominant-baseline="central" transform="translate(2.3 27.2) scale(0.1) scale(1 -1)">VPB</text>
<text id="00000171592D6A00" class="l64t59" text-anchor="middle" dominant-baseline="central" transform="translate(2.3 0) scale(0.1) scale(1 -1)">VNB</text>
<text id="00000171592D71E0" class="l83t44" text-anchor="start" dominant-baseline="text-before-edge" transform="translate(0 0) rotate(90) scale(0.1) scale(1 -1)">decap_12</text>
</g>
<g id="sky130_fd_sc_hd__decap_4">
<polygon id="0000017158E3DA50" class="l236d0" points="0,0 18.4,0 18.4,27.2 0,27.2"/>
<polygon id="0000017158E3D430" class="l68d16" points="1.45,-0.85 3.15,-0.85 3.15,0.85 1.45,0.85"/>
<polygon id="0000017158E3DBA0" class="l68d16" points="1.45,26.35 3.15,26.35 3.15,28.05 1.45,28.05"/>
<polygon id="0000017158E3E380" class="l64d16" points="1.45,26.35 3.15,26.35 3.15,28.05 1.45,28.05"/>
<polygon id="0000017158E3E540" class="l122d16" points="1.45,-0.85 3.15,-0.85 3.15,0.85 1.45,0.85"/>
<polygon id="0000017158E3D4A0" class="l81d4" points="0,0 18.4,0 18.4,27.2 0,27.2"/>
<polygon id="0000017158E3E460" class="l78d44" points="0,12.5 18.4,12.5 18.4,27.2 0,27.2"/>
<polygon id="0000017158E3D510" class="l93d44" points="0,-1.9 18.4,-1.9 18.4,10.15 0,10.15"/>
<polygon id="0000017158E3E150" class="l64d20" points="-1.9,13.05 20.3,13.05 20.3,29.1 -1.9,29.1"/>
<polygon id="0000017158E3E2A0" class="l94d20" points="0,14.85 18.4,14.85 18.4,29.1 0,29.1"/>
<polygon id="0000017158E3DC80" class="l67d44" points="1.45,26.35 3.15,26.35 3.15,28.05 1.45,28.05"/>
<polygon id="0000017158E3CFD0" class="l67d44" points="1.45,-0.85 3.15,-0.85 3.15,0.85 1.45,0.85"/>
<polygon id="0000017158E3E770" class="l67d44" points="6.05,26.35 7.75,26.35 7.75,28.05 6.05,28.05"/>
<polygon id="0000017158E3D7B0" class="l67d44" points="6.05,-0.85 7.75,-0.85 7.75,0.85 6.05,0.85"/>
<polygon id="0000017158E3DCF0" class="l67d44" points="10.65,26.35 12.35,26.35 12.35,28.05 10.65,28.05"/>
<polygon id="0000017158E3D040" class="l67d44" points="10.65,-0.85 12.35,-0.85 12.35,0.85 10.65,0.85"/>
<polygon id="0000017158E3E8C0" class="l67d44" points="15.25,26.35 16.95,26.35 16.95,28.05 15.25,28.05"/>
<polygon id="0000017158E3D740" class="l67d44" points="15.25,-0.85 16.95,-0.85 16.95,0.85 15.25,0.85"/>
<polygon id="0000017158E3D580" class="l65d20" points="1.35,16.15 17.05,16.15 17.05,24.85 1.35,24.85"/>
<polygon id="0000017158E3E690" class="l65d20" points="1.35,2.35 17.05,2.35 17.05,7.85 1.35,7.85"/>
<polygon id="0000017158E3DDD0" class="l66d20" points="14.45,26.15 3.95,26.15 3.95,14.55 1.05,14.55 1.05,11.25 8.15,11.25 8.15,14.85 14.45,14.85"/>
<polygon id="0000017158E3EA80" class="l66d20" points="17.35,12.75 10.25,12.75 10.25,9.15 3.95,9.15 3.95,1.05 14.45,1.05 14.45,9.45 17.35,9.45"/>
<polygon id="0000017158E3D0B0" class="l66d44" points="14.95,4.25 16.65,4.25 16.65,5.95 14.95,5.95"/>
<polygon id="0000017158E3E4D0" class="l66d44" points="1.75,22.55 3.45,22.55 3.45,24.25 1.75,24.25"/>
<polygon id="0000017158E3E930" class="l66d44" points="1.75,17.45 3.45,17.45 3.45,19.15 1.75,19.15"/>
<polygon id="0000017158E3D820" class="l66d44" points="1.75,4.25 3.45,4.25 3.45,5.95 1.75,5.95"/>
<polygon id="0000017158E3DB30" class="l66d44" points="1.85,12.05 3.55,12.05 3.55,13.75 1.85,13.75"/>
<polygon id="0000017158E3DEB0" class="l66d44" points="14.85,10.25 16.55,10.25 16.55,11.95 14.85,11.95"/>
<polygon id="0000017158E3E9A0" class="l66d44" points="14.95,22.55 16.65,22.55 16.65,24.25 14.95,24.25"/>
<polygon id="0000017158E3D5F0" class="l66d44" points="14.95,17.45 16.65,17.45 16.65,19.15 14.95,19.15"/>
<polygon id="0000017158E3E620" class="l67d20" points="18.4,28.05 0,28.05 0,26.35 0.85,26.35 0.85,15.45 10.05,15.45 10.05,10.25 17.55,10.25 17.55,26.35 18.4,26.35"/>
<polygon id="0000017158E3EA10" class="l67d20" points="18.4,0.85 17.55,0.85 17.55,8.55 8.35,8.55 8.35,13.75 0.85,13.75 0.85,0.85 0,0.85 0,-0.85 18.4,-0.85"/>
<polygon id="0000017158E3EB60" class="l95d20" points="18.4,13.45 4.55,13.45 4.55,14.75 0,14.75 0,9.75 13.85,9.75 13.85,9.25 18.4,9.25"/>
<polygon id="00000171592BB6F0" class="l68d20" points="0,29.6 0,24.8 18.4,24.8 18.4,29.6"/>
<polygon id="00000171592BA650" class="l68d20" points="0,2.4 0,-2.4 18.4,-2.4 18.4,2.4"/>
<text id="0000017158EEC560" class="l68t5" text-anchor="middle" dominant-baseline="central" transform="translate(2.3 0) scale(0.1) scale(1 -1)">VGND</text>
<text id="0000017158EED6D0" class="l68t5" text-anchor="middle" dominant-baseline="central" transform="translate(2.3 27.2) scale(0.1) scale(1 -1)">VPWR</text>
<text id="0000017158EEC4D0" class="l64t5" text-anchor="middle" dominant-baseline="central" transform="translate(2.3 27.2) scale(0.1) scale(1 -1)">VPB</text>
<text id="0000017158EED130" class="l64t59" text-anchor="middle" dominant-baseline="central" transform="translate(2.3 0) scale(0.1) scale(1 -1)">VNB</text>
<text id="0000017158EEDEB0" class="l83t44" text-anchor="start" dominant-baseline="text-before-edge" transform="translate(0 0) rotate(90) scale(0.1) scale(1 -1)">decap_4</text>
</g>
<g id="sky130_fd_sc_hd__decap_6">
<polygon id="0000017159B87370" class="l236d0" points="0,0 27.6,0 27.6,27.2 0,27.2"/>
<polygon id="0000017159B87CA0" class="l68d16" points="1.45,26.35 3.15,26.35 3.15,28.05 1.45,28.05"/>
<polygon id="0000017159B87D10" class="l68d16" points="1.45,-0.85 3.15,-0.85 3.15,0.85 1.45,0.85"/>
<polygon id="0000017159B87060" class="l64d16" points="1.45,26.35 3.15,26.35 3.15,28.05 1.45,28.05"/>
<polygon id="0000017159B87E60" class="l122d16" points="1.45,-0.85 3.15,-0.85 3.15,0.85 1.45,0.85"/>
<polygon id="0000017159B870D0" class="l65d20" points="1.35,16.15 26.25,16.15 26.25,24.85 1.35,24.85"/>
<polygon id="0000017159B87B50" class="l65d20" points="1.35,2.35 26.25,2.35 26.25,7.85 1.35,7.85"/>
<polygon id="0000017159B87ED0" class="l81d4" points="0,0 27.6,0 27.6,27.2 0,27.2"/>
<polygon id="0000017159B87140" class="l78d44" points="0,12.5 27.6,12.5 27.6,27.2 0,27.2"/>
<polygon id="0000017159B87A00" class="l93d44" points="0,-1.9 27.6,-1.9 27.6,10.15 0,10.15"/>
<polygon id="0000017159B87920" class="l64d20" points="-1.9,13.05 29.5,13.05 29.5,29.1 -1.9,29.1"/>
<polygon id="0000017159B87290" class="l94d20" points="0,14.85 27.6,14.85 27.6,29.1 0,29.1"/>
<polygon id="0000017159B87530" class="l67d44" points="1.45,26.35 3.15,26.35 3.15,28.05 1.45,28.05"/>
<polygon id="0000017159B87D80" class="l67d44" points="1.45,-0.85 3.15,-0.85 3.15,0.85 1.45,0.85"/>
<polygon id="0000017159B871B0" class="l67d44" points="6.05,26.35 7.75,26.35 7.75,28.05 6.05,28.05"/>
<polygon id="0000017159B87AE0" class="l67d44" points="6.05,-0.85 7.75,-0.85 7.75,0.85 6.05,0.85"/>
<polygon id="0000017159B87220" class="l67d44" points="10.65,26.35 12.35,26.35 12.35,28.05 10.65,28.05"/>
<polygon id="0000017159B87300" class="l67d44" points="10.65,-0.85 12.35,-0.85 12.35,0.85 10.65,0.85"/>
<polygon id="0000017159B87450" class="l67d44" points="15.25,26.35 16.95,26.35 16.95,28.05 15.25,28.05"/>
<polygon id="0000017159B873E0" class="l67d44" points="15.25,-0.85 16.95,-0.85 16.95,0.85 15.25,0.85"/>
<polygon id="0000017159B874C0" class="l67d44" points="19.85,26.35 21.55,26.35 21.55,28.05 19.85,28.05"/>
<polygon id="0000017159B87BC0" class="l67d44" points="19.85,-0.85 21.55,-0.85 21.55,0.85 19.85,0.85"/>
<polygon id="0000017159B875A0" class="l67d44" points="24.45,26.35 26.15,26.35 26.15,28.05 24.45,28.05"/>
<polygon id="0000017159B87610" class="l67d44" points="24.45,-0.85 26.15,-0.85 26.15,0.85 24.45,0.85"/>
<polygon id="0000017159B87680" class="l66d20" points="23.65,26.15 3.95,26.15 3.95,11.25 12.75,11.25 12.75,14.85 23.65,14.85"/>
<polygon id="0000017159B876F0" class="l66d20" points="23.65,12.75 14.85,12.75 14.85,9.15 3.95,9.15 3.95,1.05 23.65,1.05"/>
<polygon id="0000017159B877D0" class="l67d20" points="27.6,0.85 26.75,0.85 26.75,8.55 12.95,8.55 12.95,13.75 0.85,13.75 0.85,0.85 0,0.85 0,-0.85 27.6,-0.85"/>
<polygon id="0000017159B87760" class="l67d20" points="27.6,28.05 0,28.05 0,26.35 0.85,26.35 0.85,15.45 14.65,15.45 14.65,10.25 26.75,10.25 26.75,26.35 27.6,26.35"/>
<polygon id="0000017159B87DF0" class="l95d20" points="27.6,13.45 12.95,13.45 12.95,14.75 0,14.75 0,9.75 14.65,9.75 14.65,9.25 27.6,9.25"/>
<polygon id="0000017159B87A70" class="l66d44" points="1.75,22.55 3.45,22.55 3.45,24.25 1.75,24.25"/>
<polygon id="0000017159B87840" class="l66d44" points="24.15,3.9 25.85,3.9 25.85,5.6 24.15,5.6"/>
<polygon id="0000017159B87990" class="l66d44" points="24.15,22.55 25.85,22.55 25.85,24.25 24.15,24.25"/>
<polygon id="0000017159B878B0" class="l66d44" points="24.15,17.45 25.85,17.45 25.85,19.15 24.15,19.15"/>
<polygon id="0000017159B87C30" class="l66d44" points="1.75,17.45 3.45,17.45 3.45,19.15 1.75,19.15"/>
<polygon id="0000017159258610" class="l66d44" points="1.75,3.9 3.45,3.9 3.45,5.6 1.75,5.6"/>
<polygon id="0000017159258760" class="l66d44" points="4.75,12.05 6.45,12.05 6.45,13.75 4.75,13.75"/>
<polygon id="0000017159257C70" class="l66d44" points="10.25,12.05 11.95,12.05 11.95,13.75 10.25,13.75"/>
<polygon id="0000017159257960" class="l66d44" points="15.65,10.25 17.35,10.25 17.35,11.95 15.65,11.95"/>
<polygon id="0000017159258680" class="l66d44" points="21.15,10.25 22.85,10.25 22.85,11.95 21.15,11.95"/>
<polygon id="00000171592BA2D0" class="l68d20" points="0,29.6 0,24.8 27.6,24.8 27.6,29.6"/>
<polygon id="00000171592BA0A0" class="l68d20" points="0,2.4 0,-2.4 27.6,-2.4 27.6,2.4"/>
<text id="00000171592D78A0" class="l68t5" text-anchor="middle" dominant-baseline="central" transform="translate(2.3 27.2) scale(0.1) scale(1 -1)">VPWR</text>
<text id="00000171592D7930" class="l68t5" text-anchor="middle" dominant-baseline="central" transform="translate(2.3 0) scale(0.1) scale(1 -1)">VGND</text>
<text id="00000171592D79C0" class="l64t5" text-anchor="middle" dominant-baseline="central" transform="translate(2.3 27.2) scale(0.1) scale(1 -1)">VPB</text>
<text id="00000171592D5AD0" class="l64t59" text-anchor="middle" dominant-baseline="central" transform="translate(2.3 0) scale(0.1) scale(1 -1)">VNB</text>
<text id="00000171592D5B60" class="l83t44" text-anchor="start" dominant-baseline="text-before-edge" transform="translate(0 0) rotate(90) scale(0.1) scale(1 -1)">decap_6</text>
</g>
<g id="sky130_fd_sc_hd__decap_3">
<polygon id="0000017158E56210" class="l236d0" points="0,0 13.8,0 13.8,27.2 0,27.2"/>
<polygon id="0000017158E56670" class="l68d16" points="1.45,26.35 3.15,26.35 3.15,28.05 1.45,28.05"/>
<polygon id="0000017158E562F0" class="l68d16" points="1.45,-0.85 3.15,-0.85 3.15,0.85 1.45,0.85"/>
<polygon id="0000017158E55FE0" class="l64d16" points="1.45,26.35 3.15,26.35 3.15,28.05 1.45,28.05"/>
<polygon id="0000017158E56440" class="l122d16" points="1.45,-0.85 3.15,-0.85 3.15,0.85 1.45,0.85"/>
<polygon id="0000017158E561A0" class="l65d20" points="1.35,2.35 12.45,2.35 12.45,7.85 1.35,7.85"/>
<polygon id="0000017158E56050" class="l65d20" points="1.35,16.15 12.45,16.15 12.45,24.85 1.35,24.85"/>
<polygon id="0000017158E56280" class="l78d44" points="0,12.5 13.8,12.5 13.8,27.2 0,27.2"/>
<polygon id="0000017158E56360" class="l64d20" points="-1.9,13.05 15.7,13.05 15.7,29.1 -1.9,29.1"/>
<polygon id="0000017158E560C0" class="l94d20" points="0,14.85 13.8,14.85 13.8,29.1 0,29.1"/>
<polygon id="0000017158E55B80" class="l67d44" points="10.65,-0.85 12.35,-0.85 12.35,0.85 10.65,0.85"/>
<polygon id="0000017158E563D0" class="l67d44" points="10.65,26.35 12.35,26.35 12.35,28.05 10.65,28.05"/>
<polygon id="0000017158E56520" class="l67d44" points="6.05,-0.85 7.75,-0.85 7.75,0.85 6.05,0.85"/>
<polygon id="0000017158E56590" class="l67d44" points="6.05,26.35 7.75,26.35 7.75,28.05 6.05,28.05"/>
<polygon id="0000017158E56600" class="l67d44" points="1.45,-0.85 3.15,-0.85 3.15,0.85 1.45,0.85"/>
<polygon id="0000017158E55A30" class="l67d44" points="1.45,26.35 3.15,26.35 3.15,28.05 1.45,28.05"/>
<polygon id="0000017158E55AA0" class="l81d4" points="0,0 13.8,0 13.8,27.2 0,27.2"/>
<polygon id="0000017158E55B10" class="l93d44" points="0,-1.9 13.8,-1.9 13.8,10.15 0,10.15"/>
<polygon id="0000017159B9EDC0" class="l95d20" points="13.8,13.45 6.05,13.45 6.05,14.75 0,14.75 0,9.75 7.75,9.75 7.75,9.05 13.8,9.05"/>
<polygon id="0000017159B9F220" class="l67d20" points="13.8,28.05 0,28.05 0,26.35 0.85,26.35 0.85,15.45 7.75,15.45 7.75,10.05 12.95,10.05 12.95,26.35 13.8,26.35"/>
<polygon id="0000017159B9F3E0" class="l67d20" points="13.8,0.85 12.95,0.85 12.95,8.35 6.05,8.35 6.05,13.75 0.85,13.75 0.85,0.85 0,0.85 0,-0.85 13.8,-0.85"/>
<polygon id="0000017159B9F990" class="l66d20" points="11.25,12.55 7.95,12.55 7.95,9.15 3.95,9.15 3.95,1.05 9.85,1.05 9.85,9.25 11.25,9.25"/>
<polygon id="0000017159B9FBC0" class="l66d20" points="9.85,26.15 3.95,26.15 3.95,14.55 2.55,14.55 2.55,11.25 5.85,11.25 5.85,14.65 9.85,14.65"/>
<polygon id="0000017159B9FAE0" class="l66d44" points="10.35,4 12.05,4 12.05,5.7 10.35,5.7"/>
<polygon id="0000017159B9F450" class="l66d44" points="10.35,17.8 12.05,17.8 12.05,19.5 10.35,19.5"/>
<polygon id="0000017159B9F1B0" class="l66d44" points="10.35,22.55 12.05,22.55 12.05,24.25 10.35,24.25"/>
<polygon id="0000017159B9F370" class="l66d44" points="8.75,10.05 10.45,10.05 10.45,11.75 8.75,11.75"/>
<polygon id="0000017159B9F680" class="l66d44" points="3.35,12.05 5.05,12.05 5.05,13.75 3.35,13.75"/>
<polygon id="0000017159B9F840" class="l66d44" points="1.75,4 3.45,4 3.45,5.7 1.75,5.7"/>
<polygon id="0000017159B9F4C0" class="l66d44" points="1.75,17.8 3.45,17.8 3.45,19.5 1.75,19.5"/>
<polygon id="0000017159B9FC30" class="l66d44" points="1.75,22.55 3.45,22.55 3.45,24.25 1.75,24.25"/>
<polygon id="00000171592BB920" class="l68d20" points="0,29.6 0,24.8 13.8,24.8 13.8,29.6"/>
<polygon id="00000171592BAC70" class="l68d20" points="0,2.4 0,-2.4 13.8,-2.4 13.8,2.4"/>
<text id="00000171592D6340" class="l68t5" text-anchor="middle" dominant-baseline="central" transform="translate(2.3 27.2) scale(0.1) scale(1 -1)">VPWR</text>
<text id="00000171592D6A90" class="l68t5" text-anchor="middle" dominant-baseline="central" transform="translate(2.3 0) scale(0.1) scale(1 -1)">VGND</text>
<text id="00000171592D5DA0" class="l64t5" text-anchor="middle" dominant-baseline="central" transform="translate(2.3 27.2) scale(0.1) scale(1 -1)">VPB</text>
<text id="00000171592D76F0" class="l64t59" text-anchor="middle" dominant-baseline="central" transform="translate(2.3 0) scale(0.1) scale(1 -1)">VNB</text>
<text id="00000171592D7810" class="l83t44" text-anchor="start" dominant-baseline="text-before-edge" transform="translate(0 0) rotate(90) scale(0.1) scale(1 -1)">decap_3</text>
</g>
<g id="sky130_fd_sc_hd__clkbuf_4">
<polygon id="0000017159B9FCA0" class="l236d0" points="0,0 27.6,0 27.6,27.2 0,27.2"/>
<polygon id="0000017159B9F6F0" class="l68d16" points="1.45,-0.85 3.15,-0.85 3.15,0.85 1.45,0.85"/>
<polygon id="0000017159B9F5A0" class="l68d16" points="1.45,26.35 3.15,26.35 3.15,28.05 1.45,28.05"/>
<polygon id="0000017159B9FA70" class="l64d16" points="1.45,26.35 3.15,26.35 3.15,28.05 1.45,28.05"/>
<polygon id="0000017159B9FB50" class="l122d16" points="1.45,-0.85 3.15,-0.85 3.15,0.85 1.45,0.85"/>
<polygon id="0000017159B9F290" class="l67d44" points="24.45,-0.85 26.15,-0.85 26.15,0.85 24.45,0.85"/>
<polygon id="0000017159B9FA00" class="l67d44" points="24.45,26.35 26.15,26.35 26.15,28.05 24.45,28.05"/>
<polygon id="0000017159B9F0D0" class="l67d44" points="19.85,-0.85 21.55,-0.85 21.55,0.85 19.85,0.85"/>
<polygon id="0000017159B9F760" class="l67d44" points="19.85,26.35 21.55,26.35 21.55,28.05 19.85,28.05"/>
<polygon id="0000017159B9F530" class="l67d44" points="15.25,-0.85 16.95,-0.85 16.95,0.85 15.25,0.85"/>
<polygon id="0000017159B9F610" class="l67d44" points="15.25,26.35 16.95,26.35 16.95,28.05 15.25,28.05"/>
<polygon id="0000017159B9F7D0" class="l67d44" points="10.65,-0.85 12.35,-0.85 12.35,0.85 10.65,0.85"/>
<polygon id="0000017159B9EE30" class="l67d44" points="10.65,26.35 12.35,26.35 12.35,28.05 10.65,28.05"/>
<polygon id="0000017159B9EFF0" class="l67d44" points="6.05,-0.85 7.75,-0.85 7.75,0.85 6.05,0.85"/>
<polygon id="0000017159B9F060" class="l67d44" points="6.05,26.35 7.75,26.35 7.75,28.05 6.05,28.05"/>
<polygon id="0000017159B9EEA0" class="l67d44" points="1.45,-0.85 3.15,-0.85 3.15,0.85 1.45,0.85"/>
<polygon id="0000017159B9EF10" class="l67d44" points="1.45,26.35 3.15,26.35 3.15,28.05 1.45,28.05"/>
<polygon id="0000017159B9F140" class="l94d20" points="0,13.55 27.6,13.55 27.6,29.1 0,29.1"/>
<polygon id="0000017159B9EF80" class="l64d20" points="-1.9,13.05 29.5,13.05 29.5,29.1 -1.9,29.1"/>
<polygon id="0000017159B9F300" class="l93d44" points="0,-1.9 27.6,-1.9 27.6,10.15 0,10.15"/>
<polygon id="0000017159B9F8B0" class="l78d44" points="0,12.5 27.6,12.5 27.6,27.2 0,27.2"/>
<polygon id="0000017159B9F920" class="l95d20" points="0,9.75 27.6,9.75 27.6,13.45 0,13.45"/>
<polygon id="0000017159B85B30" class="l81d4" points="0,0 27.6,0 27.6,27.2 0,27.2"/>
<polygon id="0000017159B85DD0" class="l67d20" points="4.25,7.55 7.75,7.55 7.75,13.25 4.25,13.25"/>
<polygon id="0000017159B85040" class="l67d20" points="27.6,0.85 26.15,0.85 26.15,5.65 23.35,5.65 23.35,0.85 17.3,0.85 17.3,5.65 14.75,5.65 14.75,0.85 8.3,0.85 8.3,5.65 5.55,5.65 5.55,0.85 0,0.85 0,-0.85 27.6,-0.85"/>
<polygon id="0000017159B85890" class="l67d20" points="26.6,15.85 21.65,15.85 21.65,24.65 19.05,24.65 19.05,20.05 13.05,20.05 13.05,24.65 10.45,24.65 10.45,18.35 19.05,18.35 19.05,14.15 22.55,14.15 22.55,9.05 10.1,9.05 10.1,3.45 13.05,3.45 13.05,7.35 19.05,7.35 19.05,3.45 21.65,3.45 21.65,7.35 26.6,7.35"/>
<polygon id="0000017159B850B0" class="l67d20" points="20.85,12.45 11.15,12.45 11.15,16.65 3.95,16.65 3.95,24.65 0.85,24.65 0.85,2.55 3.85,2.55 3.85,5.85 2.55,5.85 2.55,14.95 9.45,14.95 9.45,10.75 20.85,10.75"/>
<polygon id="0000017159B85580" class="l67d20" points="27.6,28.05 0,28.05 0,26.35 5.65,26.35 5.65,18.35 8.75,18.35 8.75,26.35 14.75,26.35 14.75,21.75 17.3,21.75 17.3,26.35 23.35,26.35 23.35,17.65 26.2,17.65 26.2,26.35 27.6,26.35"/>
<polygon id="0000017159B85190" class="l66d44" points="15.2,3.15 16.9,3.15 16.9,4.85 15.2,4.85"/>
<polygon id="0000017159B85E40" class="l66d44" points="18.35,10.75 20.05,10.75 20.05,12.45 18.35,12.45"/>
<polygon id="0000017159B85120" class="l66d44" points="19.45,18.75 21.15,18.75 21.15,20.45 19.45,20.45"/>
<polygon id="0000017159B85C80" class="l66d44" points="6.05,19.15 7.75,19.15 7.75,20.85 6.05,20.85"/>
<polygon id="0000017159B84FD0" class="l66d44" points="19.45,15.35 21.15,15.35 21.15,17.05 19.45,17.05"/>
<polygon id="0000017159B85A50" class="l66d44" points="1.75,22.15 3.45,22.15 3.45,23.85 1.75,23.85"/>
<polygon id="0000017159B85200" class="l66d44" points="4.25,10.75 5.95,10.75 5.95,12.45 4.25,12.45"/>
<polygon id="0000017159B856D0" class="l66d44" points="1.75,16.05 3.45,16.05 3.45,17.75 1.75,17.75"/>
<polygon id="0000017159B85270" class="l66d44" points="1.75,3.35 3.45,3.35 3.45,5.05 1.75,5.05"/>
<polygon id="0000017159B852E0" class="l66d44" points="6.05,22.55 7.75,22.55 7.75,24.25 6.05,24.25"/>
<polygon id="0000017159B85350" class="l66d44" points="23.75,18.45 25.45,18.45 25.45,20.15 23.75,20.15"/>
<polygon id="0000017159B853C0" class="l66d44" points="6.05,3.15 7.75,3.15 7.75,4.85 6.05,4.85"/>
<polygon id="0000017159B85CF0" class="l66d44" points="10.85,20.8 12.55,20.8 12.55,22.5 10.85,22.5"/>
<polygon id="0000017159B855F0" class="l66d44" points="10.9,4.25 12.6,4.25 12.6,5.95 10.9,5.95"/>
<polygon id="0000017159B85430" class="l66d44" points="11.55,10.75 13.25,10.75 13.25,12.45 11.55,12.45"/>
<polygon id="0000017159B85EB0" class="l66d44" points="14.95,10.75 16.65,10.75 16.65,12.45 14.95,12.45"/>
<polygon id="0000017159B854A0" class="l66d44" points="15.15,22.55 16.85,22.55 16.85,24.25 15.15,24.25"/>
<polygon id="0000017159B85510" class="l66d44" points="19.45,22.15 21.15,22.15 21.15,23.85 19.45,23.85"/>
<polygon id="0000017159B85AC0" class="l66d44" points="19.5,4.25 21.2,4.25 21.2,5.95 19.5,5.95"/>
<polygon id="0000017159B85C10" class="l66d44" points="23.75,21.85 25.45,21.85 25.45,23.55 23.75,23.55"/>
<polygon id="0000017159B85660" class="l66d44" points="23.8,3.15 25.5,3.15 25.5,4.85 23.8,4.85"/>
<polygon id="0000017159B85740" class="l66d20" points="23.25,11.85 23.2,11.85 23.2,26.15 21.7,26.15 21.7,12.95 18.9,12.95 18.9,26.15 17.4,26.15 17.4,12.95 14.6,12.95 14.6,26.15 13.1,26.15 13.1,12.95 10.3,12.95 10.3,26.15 8.8,26.15 8.8,10.5 8.85,10.5 8.85,1.05 10.35,1.05 10.35,10.2 13.15,10.2 13.15,1.05 14.65,1.05 14.65,10.2 17.45,10.2 17.45,1.05 18.95,1.05 18.95,10.2 21.75,10.2 21.75,1.05 23.25,1.05"/>
<polygon id="0000017159B85D60" class="l66d20" points="6.45,13.25 5.5,13.25 5.5,26.15 4,26.15 4,13.25 3.45,13.25 3.45,9.95 4,9.95 4,1.05 5.5,1.05 5.5,9.95 6.45,9.95"/>
<polygon id="0000017159B857B0" class="l65d20" points="1.35,2.35 26.15,2.35 26.15,6.55 1.35,6.55"/>
<polygon id="0000017159B85BA0" class="l65d20" points="1.35,14.85 26.2,14.85 26.2,24.85 1.35,24.85"/>
<polygon id="0000017159B85820" class="l67d16" points="6.05,11.05 7.75,11.05 7.75,12.75 6.05,12.75"/>
<polygon id="0000017159B85900" class="l67d16" points="6.05,7.65 7.75,7.65 7.75,9.35 6.05,9.35"/>
<polygon id="0000017159B85970" class="l67d16" points="19.85,14.45 21.55,14.45 21.55,16.15 19.85,16.15"/>
<polygon id="0000017159B859E0" class="l67d16" points="24.45,11.05 26.15,11.05 26.15,12.75 24.45,12.75"/>
<polygon id="0000017159B86FF0" class="l67d16" points="24.45,7.65 26.15,7.65 26.15,9.35 24.45,9.35"/>
<polygon id="00000171592BB7D0" class="l68d20" points="0,2.4 0,-2.4 27.6,-2.4 27.6,2.4"/>
<polygon id="00000171592BA490" class="l68d20" points="0,29.6 0,24.8 27.6,24.8 27.6,29.6"/>
<text id="00000171592D6850" class="l67t5" text-anchor="middle" dominant-baseline="central" transform="translate(20.7 15.3) scale(0.1) scale(1 -1)">X</text>
<text id="00000171592D6D60" class="l67t5" text-anchor="middle" dominant-baseline="central" transform="translate(6.9 8.5) scale(0.1) scale(1 -1)">A</text>
<text id="00000171592D6DF0" class="l67t5" text-anchor="middle" dominant-baseline="central" transform="translate(25.3 8.5) scale(0.1) scale(1 -1)">X</text>
<text id="00000171592D5FE0" class="l67t5" text-anchor="middle" dominant-baseline="central" transform="translate(6.9 11.9) scale(0.1) scale(1 -1)">A</text>
<text id="00000171592D63D0" class="l67t5" text-anchor="middle" dominant-baseline="central" transform="translate(25.3 11.9) scale(0.1) scale(1 -1)">X</text>
<text id="00000171592D6190" class="l68t5" text-anchor="middle" dominant-baseline="central" transform="translate(2.3 0) scale(0.1) scale(1 -1)">VGND</text>
<text id="00000171592D7300" class="l68t5" text-anchor="middle" dominant-baseline="central" transform="translate(2.3 27.2) scale(0.1) scale(1 -1)">VPWR</text>
<text id="00000171592D75D0" class="l64t5" text-anchor="middle" dominant-baseline="central" transform="translate(2.3 27.2) scale(0.1) scale(1 -1)">VPB</text>
<text id="00000171592D6460" class="l64t59" text-anchor="middle" dominant-baseline="central" transform="translate(2.3 0) scale(0.1) scale(1 -1)">VNB</text>
<text id="00000171592D5C80" class="l83t44" text-anchor="start" dominant-baseline="text-before-edge" transform="translate(0 0) rotate(90) scale(0.1) scale(1 -1)">clkbuf_4</text>
</g>
<g id="sky130_fd_sc_hd__inv_2">
<polygon id="0000017158EEF030" class="l236d0" points="0,0 13.8,0 13.8,27.2 0,27.2"/>
<polygon id="0000017158EEE460" class="l64d16" points="1.45,26.35 3.15,26.35 3.15,28.05 1.45,28.05"/>
<polygon id="0000017158EEEE00" class="l122d16" points="1.45,-0.85 3.15,-0.85 3.15,0.85 1.45,0.85"/>
<polygon id="0000017158EEE4D0" class="l68d16" points="1.45,26.35 3.15,26.35 3.15,28.05 1.45,28.05"/>
<polygon id="0000017158EEE3F0" class="l68d16" points="1.45,-0.85 3.15,-0.85 3.15,0.85 1.45,0.85"/>
<polygon id="0000017158EEEAF0" class="l67d20" points="13.8,28.05 0,28.05 0,26.35 1.25,26.35 1.25,14.95 3.55,14.95 3.55,26.35 10.25,26.35 10.25,14.95 12.35,14.95 12.35,26.35 13.8,26.35"/>
<polygon id="0000017158EEEF50" class="l67d20" points="8.55,24.65 5.25,24.65 5.25,14.85 6.05,14.85 6.05,8.85 5.25,8.85 5.25,2.55 8.55,2.55"/>
<polygon id="0000017158EEEA80" class="l67d20" points="1.05,10.75 4.35,10.75 4.35,13.25 1.05,13.25"/>
<polygon id="0000017158EEE5B0" class="l67d20" points="13.8,0.85 12.35,0.85 12.35,9.05 10.25,9.05 10.25,0.85 3.55,0.85 3.55,9.05 1.25,9.05 1.25,0.85 0,0.85 0,-0.85 13.8,-0.85"/>
<polygon id="0000017158EEEE70" class="l66d44" points="10.25,2.95 11.95,2.95 11.95,4.65 10.25,4.65"/>
<polygon id="0000017158EEE2A0" class="l66d44" points="10.25,6.55 11.95,6.55 11.95,8.25 10.25,8.25"/>
<polygon id="0000017158EEEFC0" class="l66d44" points="10.25,15.75 11.95,15.75 11.95,17.45 10.25,17.45"/>
<polygon id="0000017158EEE770" class="l66d44" points="10.25,19.15 11.95,19.15 11.95,20.85 10.25,20.85"/>
<polygon id="0000017158EEE930" class="l66d44" points="10.25,22.55 11.95,22.55 11.95,24.25 10.25,24.25"/>
<polygon id="0000017158EEE310" class="l66d44" points="6.05,2.95 7.75,2.95 7.75,4.65 6.05,4.65"/>
<polygon id="0000017158EEF180" class="l66d44" points="6.05,6.55 7.75,6.55 7.75,8.25 6.05,8.25"/>
<polygon id="0000017158EEE7E0" class="l66d44" points="6.05,15.75 7.75,15.75 7.75,17.45 6.05,17.45"/>
<polygon id="0000017158EEE850" class="l66d44" points="6.05,19.15 7.75,19.15 7.75,20.85 6.05,20.85"/>
<polygon id="0000017158EEF0A0" class="l66d44" points="6.05,22.55 7.75,22.55 7.75,24.25 6.05,24.25"/>
<polygon id="0000017158EEEBD0" class="l66d44" points="1.85,22.55 3.55,22.55 3.55,24.25 1.85,24.25"/>
<polygon id="0000017158EEE380" class="l66d44" points="1.85,2.95 3.55,2.95 3.55,4.65 1.85,4.65"/>
<polygon id="0000017158EEE8C0" class="l66d44" points="1.85,6.55 3.55,6.55 3.55,8.25 1.85,8.25"/>
<polygon id="0000017158E3DC10" class="l66d44" points="1.85,10.75 3.55,10.75 3.55,12.45 1.85,12.45"/>
<polygon id="0000017158E3DF90" class="l66d44" points="1.85,15.75 3.55,15.75 3.55,17.45 1.85,17.45"/>
<polygon id="0000017158E3E7E0" class="l66d44" points="1.85,19.15 3.55,19.15 3.55,20.85 1.85,20.85"/>
<polygon id="0000017158E3D900" class="l66d20" points="9.75,26.15 8.25,26.15 8.25,13.25 5.55,13.25 5.55,26.15 4.05,26.15 4.05,13.25 1.05,13.25 1.05,9.95 4.05,9.95 4.05,1.05 5.55,1.05 5.55,9.95 8.25,9.95 8.25,1.05 9.75,1.05"/>
<polygon id="0000017158E3DF20" class="l65d20" points="1.45,2.35 12.35,2.35 12.35,8.85 1.45,8.85"/>
<polygon id="0000017158E3DE40" class="l65d20" points="1.45,14.85 12.35,14.85 12.35,24.85 1.45,24.85"/>
<polygon id="0000017158E3E310" class="l67d16" points="6.05,7.65 7.75,7.65 7.75,9.35 6.05,9.35"/>
<polygon id="0000017158E3E0E0" class="l67d16" points="1.45,11.05 3.15,11.05 3.15,12.75 1.45,12.75"/>
<polygon id="0000017158E3D350" class="l67d16" points="6.05,14.45 7.75,14.45 7.75,16.15 6.05,16.15"/>
<polygon id="0000017158E3D6D0" class="l67d16" points="6.05,11.05 7.75,11.05 7.75,12.75 6.05,12.75"/>
<polygon id="0000017158E3E5B0" class="l67d44" points="10.65,-0.85 12.35,-0.85 12.35,0.85 10.65,0.85"/>
<polygon id="0000017158E3D2E0" class="l67d44" points="1.45,26.35 3.15,26.35 3.15,28.05 1.45,28.05"/>
<polygon id="0000017158E3E700" class="l67d44" points="1.45,-0.85 3.15,-0.85 3.15,0.85 1.45,0.85"/>
<polygon id="0000017158E3DAC0" class="l67d44" points="6.05,26.35 7.75,26.35 7.75,28.05 6.05,28.05"/>
<polygon id="0000017158E3D9E0" class="l67d44" points="6.05,-0.85 7.75,-0.85 7.75,0.85 6.05,0.85"/>
<polygon id="0000017158E3DD60" class="l67d44" points="10.65,26.35 12.35,26.35 12.35,28.05 10.65,28.05"/>
<polygon id="0000017158E3E850" class="l81d4" points="0,0 13.8,0 13.8,27.2 0,27.2"/>
<polygon id="0000017158E3D270" class="l94d20" points="0,13.55 13.8,13.55 13.8,29.1 0,29.1"/>
<polygon id="0000017158E3D3C0" class="l64d20" points="-1.9,13.05 15.7,13.05 15.7,29.1 -1.9,29.1"/>
<polygon id="0000017158E3E3F0" class="l93d44" points="0,-1.9 13.8,-1.9 13.8,10.15 0,10.15"/>
<polygon id="0000017158E3EAF0" class="l78d44" points="0,12.5 13.8,12.5 13.8,27.2 0,27.2"/>
<polygon id="0000017158E3D120" class="l95d20" points="0,9.75 13.8,9.75 13.8,13.45 0,13.45"/>
<polygon id="00000171592BB5A0" class="l68d20" points="0,29.6 0,24.8 13.8,24.8 13.8,29.6"/>
<polygon id="00000171592BB060" class="l68d20" points="0,2.4 0,-2.4 13.8,-2.4 13.8,2.4"/>
<text id="0000017158EEC290" class="l67t5" text-anchor="middle" dominant-baseline="central" transform="translate(2.3 11.9) scale(0.17) scale(1 -1)">A</text>
<text id="0000017158EED5B0" class="l67t5" text-anchor="middle" dominant-baseline="central" transform="translate(6.9 8.5) scale(0.17) scale(1 -1)">Y</text>
<text id="0000017158EECE60" class="l67t5" text-anchor="middle" dominant-baseline="central" transform="translate(6.9 15.3) scale(0.17) scale(1 -1)">Y</text>
<text id="0000017158EED370" class="l67t5" text-anchor="middle" dominant-baseline="central" transform="translate(6.9 11.9) scale(0.17) scale(1 -1)">Y</text>
<text id="0000017158EEC320" class="l64t5" text-anchor="middle" dominant-baseline="central" transform="translate(2.3 27.2) scale(0.1) scale(1 -1)">VPB</text>
<text id="0000017158EECDD0" class="l64t59" text-anchor="middle" dominant-baseline="central" transform="translate(2.3 0) scale(0.1) scale(1 -1)">VNB</text>
<text id="0000017158EEC440" class="l68t5" text-anchor="middle" dominant-baseline="central" transform="translate(2.3 27.2) scale(0.1) scale(1 -1)">VPWR</text>
<text id="0000017158EEDE20" class="l68t5" text-anchor="middle" dominant-baseline="central" transform="translate(2.3 0) scale(0.1) scale(1 -1)">VGND</text>
<text id="0000017158EED910" class="l83t44" text-anchor="start" dominant-baseline="text-before-edge" transform="translate(0 0) rotate(90) scale(0.1) scale(1 -1)">inv_2</text>
</g>
<g id="sky130_fd_sc_hd__fill_1">
<polygon id="00000171592586F0" class="l64d16" points="1.55,26.7 2.55,26.7 2.55,27.55 1.55,27.55"/>
<polygon id="0000017159258220" class="l122d16" points="1.4,-0.55 2.6,-0.55 2.6,0.55 1.4,0.55"/>
<polygon id="0000017159258450" class="l68d16" points="1.1,26.35 2.9,26.35 2.9,27.85 1.1,27.85"/>
<polygon id="00000171592584C0" class="l68d16" points="1.1,-0.65 2.9,-0.65 2.9,0.8 1.1,0.8"/>
<polygon id="00000171592583E0" class="l81d4" points="0,0 4.6,0 4.6,27.2 0,27.2"/>
<polygon id="00000171592580D0" class="l78d44" points="0,12.5 4.6,12.5 4.6,27.2 0,27.2"/>
<polygon id="0000017159258370" class="l93d44" points="0,-1.9 4.6,-1.9 4.6,10.15 0,10.15"/>
<polygon id="0000017159257B20" class="l64d20" points="-1.9,13.05 6.5,13.05 6.5,29.1 -1.9,29.1"/>
<polygon id="0000017159258530" class="l94d20" points="0,13.55 4.6,13.55 4.6,29.1 0,29.1"/>
<polygon id="0000017159258290" class="l67d44" points="1.45,26.35 3.15,26.35 3.15,28.05 1.45,28.05"/>
<polygon id="0000017159258060" class="l67d44" points="1.45,-0.85 3.15,-0.85 3.15,0.85 1.45,0.85"/>
<polygon id="00000171592BA490" class="l67d20" points="0,0.85 0,-0.85 4.6,-0.85 4.6,0.85"/>
<polygon id="00000171592BB4C0" class="l67d20" points="0,28.05 0,26.35 4.6,26.35 4.6,28.05"/>
<polygon id="00000171592BA0A0" class="l68d20" points="0,29.6 0,24.8 4.6,24.8 4.6,29.6"/>
<polygon id="00000171592BA8F0" class="l68d20" points="0,2.4 0,-2.4 4.6,-2.4 4.6,2.4"/>
<text id="00000171592D6580" class="l68t5" text-anchor="middle" dominant-baseline="central" transform="translate(2.05 27.2) scale(0.125) scale(1 -1)">VPWR</text>
<text id="00000171592D6730" class="l68t5" text-anchor="middle" dominant-baseline="central" transform="translate(2.05 0) scale(0.125) scale(1 -1)">VGND</text>
<text id="00000171592D67C0" class="l64t5" text-anchor="middle" dominant-baseline="central" transform="translate(2.3 27.2) scale(0.1) scale(1 -1)">VPB</text>
<text id="0000017156DA3F00" class="l64t59" text-anchor="middle" dominant-baseline="central" transform="translate(2.3 0) scale(0.1) scale(1 -1)">VNB</text>
<text id="0000017156DA2E20" class="l83t44" text-anchor="start" dominant-baseline="text-before-edge" transform="translate(0 0) rotate(90) scale(0.1) scale(1 -1)">fill_1</text>
</g>
</defs>
<rect x="-28.56" y="-599.76" width="402.12" height="628.32" fill="#222222" stroke="none"/>
<g id="inverter" transform="scale(1 -1)">
<polygon id="0000017159BEDA70" class="l235d4" points="0,0 345,0 345,571.2 0,571.2"/>
<polygon id="0000017159BED680" class="l67d20" points="272.85,446.25 274.55,446.25 274.55,447.95 272.85,447.95"/>
<polygon id="0000017159BEDDF0" class="l67d20" points="263.65,439.45 265.35,439.45 265.35,441.15 263.65,441.15"/>
<polygon id="0000017159BEDED0" class="l67d20" points="222.25,150.45 223.95,150.45 223.95,152.15 222.25,152.15"/>
<polygon id="0000017159BED060" class="l67d20" points="217.65,140.25 219.35,140.25 219.35,141.95 217.65,141.95"/>
<polygon id="0000017159BEE2C0" class="l67d20" points="88.85,119.85 90.55,119.85 90.55,121.55 88.85,121.55"/>
<polygon id="0000017159BEE5D0" class="l67d20" points="70.45,116.45 72.15,116.45 72.15,118.15 70.45,118.15"/>
<polygon id="0000017159BED840" class="l67d44" points="272.85,446.25 274.55,446.25 274.55,447.95 272.85,447.95"/>
<polygon id="0000017159BED370" class="l67d44" points="263.65,439.45 265.35,439.45 265.35,441.15 263.65,441.15"/>
<polygon id="0000017159BEE3A0" class="l67d44" points="222.25,150.45 223.95,150.45 223.95,152.15 222.25,152.15"/>
<polygon id="0000017159BEE330" class="l67d44" points="217.65,140.25 219.35,140.25 219.35,141.95 217.65,141.95"/>
<polygon id="0000017159BED4C0" class="l67d44" points="88.85,119.85 90.55,119.85 90.55,121.55 88.85,121.55"/>
<polygon id="0000017159BEDE60" class="l67d44" points="70.45,116.45 72.15,116.45 72.15,118.15 70.45,118.15"/>
<polygon id="0000017159BED8B0" class="l68d20" points="55.2,460 289.8,460 289.8,464.8 55.2,464.8"/>
<polygon id="0000017159BEEA30" class="l68d20" points="272.25,447.8 275.15,447.8 275.15,448.25 272.25,448.25"/>
<polygon id="0000017159BED0D0" class="l68d20" points="322.7,447.8 325.9,447.8 325.9,448.4 322.7,448.4"/>
<polygon id="0000017159BED450" class="l68d20" points="272.25,446.4 325.9,446.4 325.9,447.8 272.25,447.8"/>
<polygon id="0000017159BED1B0" class="l68d20" points="272.25,445.95 275.15,445.95 275.15,446.4 272.25,446.4"/>
<polygon id="0000017159BED140" class="l68d20" points="322.7,445.8 325.9,445.8 325.9,446.4 322.7,446.4"/>
<polygon id="0000017159BED290" class="l68d20" points="262.9,439 266.1,439 266.1,441.6 262.9,441.6"/>
<polygon id="0000017159BEE410" class="l68d20" points="55.2,432.8 289.8,432.8 289.8,437.6 55.2,437.6"/>
<polygon id="0000017159BED300" class="l68d20" points="55.2,405.6 289.8,405.6 289.8,410.4 55.2,410.4"/>
<polygon id="0000017159BEDB50" class="l68d20" points="55.2,378.4 289.8,378.4 289.8,383.2 55.2,383.2"/>
<polygon id="0000017159BED3E0" class="l68d20" points="55.2,351.2 289.8,351.2 289.8,356 55.2,356"/>
<polygon id="0000017159BEDF40" class="l68d20" points="55.2,324 289.8,324 289.8,328.8 55.2,328.8"/>
<polygon id="0000017159BED530" class="l68d20" points="55.2,296.8 289.8,296.8 289.8,301.6 55.2,301.6"/>
<polygon id="0000017159BED610" class="l68d20" points="55.2,269.6 289.8,269.6 289.8,274.4 55.2,274.4"/>
<polygon id="0000017159BED6F0" class="l68d20" points="55.2,242.4 289.8,242.4 289.8,247.2 55.2,247.2"/>
<polygon id="0000017159BEE480" class="l68d20" points="55.2,215.2 289.8,215.2 289.8,220 55.2,220"/>
<polygon id="0000017159BEDBC0" class="l68d20" points="55.2,188 289.8,188 289.8,192.8 55.2,192.8"/>
<polygon id="0000017159BEE170" class="l68d20" points="55.2,160.8 289.8,160.8 289.8,165.6 55.2,165.6"/>
<polygon id="0000017159BEE640" class="l68d20" points="262.9,156.8 266.1,156.8 266.1,159.4 262.9,159.4"/>
<polygon id="0000017159BEDFB0" class="l68d20" points="221.65,152 224.55,152 224.55,152.45 221.65,152.45"/>
<polygon id="0000017159BEE6B0" class="l68d20" points="263.8,152 265.2,152 265.2,156.8 263.8,156.8"/>
<polygon id="0000017159BEE020" class="l68d20" points="221.65,150.6 265.2,150.6 265.2,152 221.65,152"/>
<polygon id="0000017159BEE720" class="l68d20" points="221.65,150.15 224.55,150.15 224.55,150.6 221.65,150.6"/>
<polygon id="0000017159BEE090" class="l68d20" points="216.9,139.8 220.1,139.8 220.1,142.4 216.9,142.4"/>
<polygon id="0000017159BEE100" class="l68d20" points="55.2,133.6 289.8,133.6 289.8,138.4 55.2,138.4"/>
<polygon id="0000017159BEEDB0" class="l68d20" points="88.25,121.4 91.15,121.4 91.15,121.85 88.25,121.85"/>
<polygon id="0000017159BEEE20" class="l68d20" points="216.9,121.4 220.1,121.4 220.1,122 216.9,122"/>
<polygon id="0000017159BEECD0" class="l68d20" points="88.25,120 220.1,120 220.1,121.4 88.25,121.4"/>
<polygon id="0000017159BEEE90" class="l68d20" points="88.25,119.55 91.15,119.55 91.15,120 88.25,120"/>
<polygon id="0000017159BEEF00" class="l68d20" points="216.9,119.4 220.1,119.4 220.1,120 216.9,120"/>
<polygon id="0000017159BEEBF0" class="l68d20" points="0.7,118 3.9,118 3.9,118.6 0.7,118.6"/>
<polygon id="0000017159BEEC60" class="l68d20" points="69.85,118 72.75,118 72.75,118.45 69.85,118.45"/>
<polygon id="0000017159BEED40" class="l68d20" points="0.7,116.6 72.75,116.6 72.75,118 0.7,118"/>
<polygon id="000001715926CAC0" class="l68d20" points="0.7,116 3.9,116 3.9,116.6 0.7,116.6"/>
<polygon id="000001715926CB30" class="l68d20" points="69.85,116.15 72.75,116.15 72.75,116.6 69.85,116.6"/>
<polygon id="000001715926C5F0" class="l68d20" points="55.2,106.4 289.8,106.4 289.8,111.2 55.2,111.2"/>
<polygon id="000001715926CC80" class="l68d44" points="98.05,461.65 99.55,461.65 99.55,463.15 98.05,463.15"/>
<polygon id="000001715926D1C0" class="l68d44" points="101.25,461.65 102.75,461.65 102.75,463.15 101.25,463.15"/>
<polygon id="000001715926C3C0" class="l68d44" points="104.45,461.65 105.95,461.65 105.95,463.15 104.45,463.15"/>
<polygon id="000001715926CF20" class="l68d44" points="107.65,461.65 109.15,461.65 109.15,463.15 107.65,463.15"/>
<polygon id="000001715926BCC0" class="l68d44" points="110.85,461.65 112.35,461.65 112.35,463.15 110.85,463.15"/>
<polygon id="000001715926C890" class="l68d44" points="323.55,446.35 325.05,446.35 325.05,447.85 323.55,447.85"/>
<polygon id="000001715926BDA0" class="l68d44" points="263.75,439.55 265.25,439.55 265.25,441.05 263.75,441.05"/>
<polygon id="000001715926CBA0" class="l68d44" points="131.05,434.45 132.55,434.45 132.55,435.95 131.05,435.95"/>
<polygon id="000001715926BEF0" class="l68d44" points="134.25,434.45 135.75,434.45 135.75,435.95 134.25,435.95"/>
<polygon id="000001715926C120" class="l68d44" points="137.45,434.45 138.95,434.45 138.95,435.95 137.45,435.95"/>
<polygon id="000001715926D230" class="l68d44" points="140.65,434.45 142.15,434.45 142.15,435.95 140.65,435.95"/>
<polygon id="000001715926C200" class="l68d44" points="143.85,434.45 145.35,434.45 145.35,435.95 143.85,435.95"/>
<polygon id="000001715926C6D0" class="l68d44" points="98.05,407.25 99.55,407.25 99.55,408.75 98.05,408.75"/>
<polygon id="000001715926C740" class="l68d44" points="101.25,407.25 102.75,407.25 102.75,408.75 101.25,408.75"/>
<polygon id="000001715926C190" class="l68d44" points="104.45,407.25 105.95,407.25 105.95,408.75 104.45,408.75"/>
<polygon id="000001715926C430" class="l68d44" points="107.65,407.25 109.15,407.25 109.15,408.75 107.65,408.75"/>
<polygon id="000001715926C660" class="l68d44" points="110.85,407.25 112.35,407.25 112.35,408.75 110.85,408.75"/>
<polygon id="000001715926BB00" class="l68d44" points="131.05,380.05 132.55,380.05 132.55,381.55 131.05,381.55"/>
<polygon id="000001715926D150" class="l68d44" points="134.25,380.05 135.75,380.05 135.75,381.55 134.25,381.55"/>
<polygon id="000001715926C7B0" class="l68d44" points="137.45,380.05 138.95,380.05 138.95,381.55 137.45,381.55"/>
<polygon id="000001715926C510" class="l68d44" points="140.65,380.05 142.15,380.05 142.15,381.55 140.65,381.55"/>
<polygon id="000001715926CC10" class="l68d44" points="143.85,380.05 145.35,380.05 145.35,381.55 143.85,381.55"/>
<polygon id="000001715926CE40" class="l68d44" points="98.05,352.85 99.55,352.85 99.55,354.35 98.05,354.35"/>
<polygon id="000001715926BD30" class="l68d44" points="101.25,352.85 102.75,352.85 102.75,354.35 101.25,354.35"/>
<polygon id="000001715926C270" class="l68d44" points="104.45,352.85 105.95,352.85 105.95,354.35 104.45,354.35"/>
<polygon id="000001715926BB70" class="l68d44" points="107.65,352.85 109.15,352.85 109.15,354.35 107.65,354.35"/>
<polygon id="000001715926C820" class="l68d44" points="110.85,352.85 112.35,352.85 112.35,354.35 110.85,354.35"/>
<polygon id="000001715926C350" class="l68d44" points="131.05,325.65 132.55,325.65 132.55,327.15 131.05,327.15"/>
<polygon id="000001715926B940" class="l68d44" points="134.25,325.65 135.75,325.65 135.75,327.15 134.25,327.15"/>
<polygon id="000001715926C2E0" class="l68d44" points="137.45,325.65 138.95,325.65 138.95,327.15 137.45,327.15"/>
<polygon id="000001715926C900" class="l68d44" points="140.65,325.65 142.15,325.65 142.15,327.15 140.65,327.15"/>
<polygon id="000001715926C4A0" class="l68d44" points="143.85,325.65 145.35,325.65 145.35,327.15 143.85,327.15"/>
<polygon id="000001715926C970" class="l68d44" points="98.05,298.45 99.55,298.45 99.55,299.95 98.05,299.95"/>
<polygon id="000001715926D380" class="l68d44" points="101.25,298.45 102.75,298.45 102.75,299.95 101.25,299.95"/>
<polygon id="000001715926BE80" class="l68d44" points="104.45,298.45 105.95,298.45 105.95,299.95 104.45,299.95"/>
<polygon id="000001715926CDD0" class="l68d44" points="107.65,298.45 109.15,298.45 109.15,299.95 107.65,299.95"/>
<polygon id="000001715926D2A0" class="l68d44" points="110.85,298.45 112.35,298.45 112.35,299.95 110.85,299.95"/>
<polygon id="000001715926C580" class="l68d44" points="131.05,271.25 132.55,271.25 132.55,272.75 131.05,272.75"/>
<polygon id="000001715926CCF0" class="l68d44" points="134.25,271.25 135.75,271.25 135.75,272.75 134.25,272.75"/>
<polygon id="000001715926BE10" class="l68d44" points="137.45,271.25 138.95,271.25 138.95,272.75 137.45,272.75"/>
<polygon id="000001715926CD60" class="l68d44" points="140.65,271.25 142.15,271.25 142.15,272.75 140.65,272.75"/>
<polygon id="000001715926C9E0" class="l68d44" points="143.85,271.25 145.35,271.25 145.35,272.75 143.85,272.75"/>
<polygon id="000001715926CA50" class="l68d44" points="98.05,244.05 99.55,244.05 99.55,245.55 98.05,245.55"/>
<polygon id="000001715926BBE0" class="l68d44" points="101.25,244.05 102.75,244.05 102.75,245.55 101.25,245.55"/>
<polygon id="000001715926B860" class="l68d44" points="104.45,244.05 105.95,244.05 105.95,245.55 104.45,245.55"/>
<polygon id="000001715926D000" class="l68d44" points="107.65,244.05 109.15,244.05 109.15,245.55 107.65,245.55"/>
<polygon id="000001715926C040" class="l68d44" points="110.85,244.05 112.35,244.05 112.35,245.55 110.85,245.55"/>
<polygon id="000001715926CEB0" class="l68d44" points="131.05,216.85 132.55,216.85 132.55,218.35 131.05,218.35"/>
<polygon id="000001715926B8D0" class="l68d44" points="134.25,216.85 135.75,216.85 135.75,218.35 134.25,218.35"/>
<polygon id="000001715926D310" class="l68d44" points="137.45,216.85 138.95,216.85 138.95,218.35 137.45,218.35"/>
<polygon id="000001715926C0B0" class="l68d44" points="140.65,216.85 142.15,216.85 142.15,218.35 140.65,218.35"/>
<polygon id="000001715926CF90" class="l68d44" points="143.85,216.85 145.35,216.85 145.35,218.35 143.85,218.35"/>
<polygon id="000001715926D070" class="l68d44" points="98.05,189.65 99.55,189.65 99.55,191.15 98.05,191.15"/>
<polygon id="000001715926B9B0" class="l68d44" points="101.25,189.65 102.75,189.65 102.75,191.15 101.25,191.15"/>
<polygon id="000001715926D3F0" class="l68d44" points="104.45,189.65 105.95,189.65 105.95,191.15 104.45,191.15"/>
<polygon id="000001715926D0E0" class="l68d44" points="107.65,189.65 109.15,189.65 109.15,191.15 107.65,191.15"/>
<polygon id="000001715926BA20" class="l68d44" points="110.85,189.65 112.35,189.65 112.35,191.15 110.85,191.15"/>
<polygon id="000001715926BA90" class="l68d44" points="131.05,162.45 132.55,162.45 132.55,163.95 131.05,163.95"/>
<polygon id="000001715926BC50" class="l68d44" points="134.25,162.45 135.75,162.45 135.75,163.95 134.25,163.95"/>
<polygon id="000001715926BF60" class="l68d44" points="137.45,162.45 138.95,162.45 138.95,163.95 137.45,163.95"/>
<polygon id="000001715926BFD0" class="l68d44" points="140.65,162.45 142.15,162.45 142.15,163.95 140.65,163.95"/>
<polygon id="000001715926D620" class="l68d44" points="143.85,162.45 145.35,162.45 145.35,163.95 143.85,163.95"/>
<polygon id="000001715926D690" class="l68d44" points="263.75,157.35 265.25,157.35 265.25,158.85 263.75,158.85"/>
<polygon id="000001715926D700" class="l68d44" points="217.75,140.35 219.25,140.35 219.25,141.85 217.75,141.85"/>
<polygon id="000001715926D770" class="l68d44" points="98.05,135.25 99.55,135.25 99.55,136.75 98.05,136.75"/>
<polygon id="000001715926D460" class="l68d44" points="101.25,135.25 102.75,135.25 102.75,136.75 101.25,136.75"/>
<polygon id="000001715926D4D0" class="l68d44" points="104.45,135.25 105.95,135.25 105.95,136.75 104.45,136.75"/>
<polygon id="000001715926D5B0" class="l68d44" points="107.65,135.25 109.15,135.25 109.15,136.75 107.65,136.75"/>
<polygon id="000001715926D540" class="l68d44" points="110.85,135.25 112.35,135.25 112.35,136.75 110.85,136.75"/>
<polygon id="0000017159270ED0" class="l68d44" points="217.75,119.95 219.25,119.95 219.25,121.45 217.75,121.45"/>
<polygon id="0000017159270300" class="l68d44" points="1.55,116.55 3.05,116.55 3.05,118.05 1.55,118.05"/>
<polygon id="000001715926FEA0" class="l68d44" points="131.05,108.05 132.55,108.05 132.55,109.55 131.05,109.55"/>
<polygon id="0000017159270CA0" class="l68d44" points="134.25,108.05 135.75,108.05 135.75,109.55 134.25,109.55"/>
<polygon id="0000017159271250" class="l68d44" points="137.45,108.05 138.95,108.05 138.95,109.55 137.45,109.55"/>
<polygon id="00000171592708B0" class="l68d44" points="140.65,108.05 142.15,108.05 142.15,109.55 140.65,109.55"/>
<polygon id="0000017159270BC0" class="l68d44" points="143.85,108.05 145.35,108.05 145.35,109.55 143.85,109.55"/>
<polygon id="0000017159270370" class="l69d20" points="322.9,531.2 325.7,531.2 325.7,571.2 322.9,571.2"/>
<polygon id="000001715926F880" class="l69d20" points="97.5,460.55 112.9,460.55 112.9,464.25 97.5,464.25"/>
<polygon id="00000171592712C0" class="l69d20" points="323.6,448.7 325,448.7 325,531.2 323.6,531.2"/>
<polygon id="000001715926F8F0" class="l69d20" points="323,445.5 325.6,445.5 325.6,448.7 323,448.7"/>
<polygon id="00000171592703E0" class="l69d20" points="263.2,438.7 265.8,438.7 265.8,441.9 263.2,441.9"/>
<polygon id="0000017159270AE0" class="l69d20" points="130.5,433.35 145.9,433.35 145.9,437.05 130.5,437.05"/>
<polygon id="0000017159271090" class="l69d20" points="97.5,406.15 112.9,406.15 112.9,409.85 97.5,409.85"/>
<polygon id="0000017159271330" class="l69d20" points="130.5,378.95 145.9,378.95 145.9,382.65 130.5,382.65"/>
<polygon id="000001715926FB90" class="l69d20" points="97.5,351.75 112.9,351.75 112.9,355.45 97.5,355.45"/>
<polygon id="0000017159270E60" class="l69d20" points="130.5,324.55 145.9,324.55 145.9,328.25 130.5,328.25"/>
<polygon id="000001715926FD50" class="l69d20" points="97.5,297.35 112.9,297.35 112.9,301.05 97.5,301.05"/>
<polygon id="0000017159270140" class="l69d20" points="130.5,270.15 145.9,270.15 145.9,273.85 130.5,273.85"/>
<polygon id="000001715926FB20" class="l69d20" points="97.5,242.95 112.9,242.95 112.9,246.65 97.5,246.65"/>
<polygon id="0000017159270760" class="l69d20" points="130.5,215.75 145.9,215.75 145.9,219.45 130.5,219.45"/>
<polygon id="0000017159270450" class="l69d20" points="97.5,188.55 112.9,188.55 112.9,192.25 97.5,192.25"/>
<polygon id="000001715926F960" class="l69d20" points="130.5,161.35 145.9,161.35 145.9,165.05 130.5,165.05"/>
<polygon id="00000171592701B0" class="l69d20" points="263.8,159.7 265.2,159.7 265.2,438.7 263.8,438.7"/>
<polygon id="0000017159270920" class="l69d20" points="263.2,156.5 265.8,156.5 265.8,159.7 263.2,159.7"/>
<polygon id="0000017159270290" class="l69d20" points="217.2,139.5 219.8,139.5 219.8,142.7 217.2,142.7"/>
<polygon id="00000171592706F0" class="l69d20" points="97.5,134.15 112.9,134.15 112.9,137.85 97.5,137.85"/>
<polygon id="00000171592713A0" class="l69d20" points="217.8,122.3 219.2,122.3 219.2,139.5 217.8,139.5"/>
<polygon id="000001715926FF10" class="l69d20" points="217.2,119.1 219.8,119.1 219.8,122.3 217.2,122.3"/>
<polygon id="0000017159270DF0" class="l69d20" points="1,115.7 3.6,115.7 3.6,118.9 1,118.9"/>
<polygon id="0000017159271410" class="l69d20" points="1.6,40 3,40 3,115.7 1.6,115.7"/>
<polygon id="00000171592704C0" class="l69d20" points="130.5,106.95 145.9,106.95 145.9,110.65 130.5,110.65"/>
<polygon id="0000017159270D10" class="l69d20" points="0.9,0 3.7,0 3.7,40 0.9,40"/>
<polygon id="000001715926FDC0" class="l69d44" points="98.2,461.4 100.2,461.4 100.2,463.4 98.2,463.4"/>
<polygon id="0000017159270B50" class="l69d44" points="102.2,461.4 104.2,461.4 104.2,463.4 102.2,463.4"/>
<polygon id="0000017159270220" class="l69d44" points="106.2,461.4 108.2,461.4 108.2,463.4 106.2,463.4"/>
<polygon id="0000017159270680" class="l69d44" points="110.2,461.4 112.2,461.4 112.2,463.4 110.2,463.4"/>
<polygon id="000001715926FC00" class="l69d44" points="131.2,434.2 133.2,434.2 133.2,436.2 131.2,436.2"/>
<polygon id="000001715926F9D0" class="l69d44" points="135.2,434.2 137.2,434.2 137.2,436.2 135.2,436.2"/>
<polygon id="0000017159271020" class="l69d44" points="139.2,434.2 141.2,434.2 141.2,436.2 139.2,436.2"/>
<polygon id="0000017159270060" class="l69d44" points="143.2,434.2 145.2,434.2 145.2,436.2 143.2,436.2"/>
<polygon id="0000017159270530" class="l69d44" points="98.2,407 100.2,407 100.2,409 98.2,409"/>
<polygon id="000001715926FA40" class="l69d44" points="102.2,407 104.2,407 104.2,409 102.2,409"/>
<polygon id="0000017159271170" class="l69d44" points="106.2,407 108.2,407 108.2,409 106.2,409"/>
<polygon id="00000171592700D0" class="l69d44" points="110.2,407 112.2,407 112.2,409 110.2,409"/>
<polygon id="0000017159270F40" class="l69d44" points="131.2,379.8 133.2,379.8 133.2,381.8 131.2,381.8"/>
<polygon id="0000017159271100" class="l69d44" points="135.2,379.8 137.2,379.8 137.2,381.8 135.2,381.8"/>
<polygon id="000001715926FAB0" class="l69d44" points="139.2,379.8 141.2,379.8 141.2,381.8 139.2,381.8"/>
<polygon id="00000171592711E0" class="l69d44" points="143.2,379.8 145.2,379.8 145.2,381.8 143.2,381.8"/>
<polygon id="00000171592707D0" class="l69d44" points="98.2,352.6 100.2,352.6 100.2,354.6 98.2,354.6"/>
<polygon id="000001715926FC70" class="l69d44" points="102.2,352.6 104.2,352.6 104.2,354.6 102.2,354.6"/>
<polygon id="00000171592705A0" class="l69d44" points="106.2,352.6 108.2,352.6 108.2,354.6 106.2,354.6"/>
<polygon id="0000017159270840" class="l69d44" points="110.2,352.6 112.2,352.6 112.2,354.6 110.2,354.6"/>
<polygon id="000001715926FCE0" class="l69d44" points="131.2,325.4 133.2,325.4 133.2,327.4 131.2,327.4"/>
<polygon id="0000017159270610" class="l69d44" points="135.2,325.4 137.2,325.4 137.2,327.4 135.2,327.4"/>
<polygon id="0000017159270990" class="l69d44" points="139.2,325.4 141.2,325.4 141.2,327.4 139.2,327.4"/>
<polygon id="0000017159270A00" class="l69d44" points="143.2,325.4 145.2,325.4 145.2,327.4 143.2,327.4"/>
<polygon id="0000017159270C30" class="l69d44" points="98.2,298.2 100.2,298.2 100.2,300.2 98.2,300.2"/>
<polygon id="000001715926FE30" class="l69d44" points="102.2,298.2 104.2,298.2 104.2,300.2 102.2,300.2"/>
<polygon id="0000017159270A70" class="l69d44" points="106.2,298.2 108.2,298.2 108.2,300.2 106.2,300.2"/>
<polygon id="000001715926FF80" class="l69d44" points="110.2,298.2 112.2,298.2 112.2,300.2 110.2,300.2"/>
<polygon id="000001715926FFF0" class="l69d44" points="131.2,271 133.2,271 133.2,273 131.2,273"/>
<polygon id="0000017159270D80" class="l69d44" points="135.2,271 137.2,271 137.2,273 135.2,273"/>
<polygon id="0000017159270FB0" class="l69d44" points="139.2,271 141.2,271 141.2,273 139.2,273"/>
<polygon id="0000017159271720" class="l69d44" points="143.2,271 145.2,271 145.2,273 143.2,273"/>
<polygon id="00000171592715D0" class="l69d44" points="98.2,243.8 100.2,243.8 100.2,245.8 98.2,245.8"/>
<polygon id="00000171592714F0" class="l69d44" points="102.2,243.8 104.2,243.8 104.2,245.8 102.2,245.8"/>
<polygon id="00000171592716B0" class="l69d44" points="106.2,243.8 108.2,243.8 108.2,245.8 106.2,245.8"/>
<polygon id="0000017159271790" class="l69d44" points="110.2,243.8 112.2,243.8 112.2,245.8 110.2,245.8"/>
<polygon id="0000017159271640" class="l69d44" points="131.2,216.6 133.2,216.6 133.2,218.6 131.2,218.6"/>
<polygon id="0000017159271480" class="l69d44" points="135.2,216.6 137.2,216.6 137.2,218.6 135.2,218.6"/>
<polygon id="0000017159271560" class="l69d44" points="139.2,216.6 141.2,216.6 141.2,218.6 139.2,218.6"/>
<polygon id="00000171592B9070" class="l69d44" points="143.2,216.6 145.2,216.6 145.2,218.6 143.2,218.6"/>
<polygon id="00000171592B9310" class="l69d44" points="98.2,189.4 100.2,189.4 100.2,191.4 98.2,191.4"/>
<polygon id="00000171592B9E00" class="l69d44" points="102.2,189.4 104.2,189.4 104.2,191.4 102.2,191.4"/>
<polygon id="00000171592B8F20" class="l69d44" points="106.2,189.4 108.2,189.4 108.2,191.4 106.2,191.4"/>
<polygon id="00000171592B9620" class="l69d44" points="110.2,189.4 112.2,189.4 112.2,191.4 110.2,191.4"/>
<polygon id="00000171592B9BD0" class="l69d44" points="131.2,162.2 133.2,162.2 133.2,164.2 131.2,164.2"/>
<polygon id="00000171592B9E70" class="l69d44" points="135.2,162.2 137.2,162.2 137.2,164.2 135.2,164.2"/>
<polygon id="00000171592B86D0" class="l69d44" points="139.2,162.2 141.2,162.2 141.2,164.2 139.2,164.2"/>
<polygon id="00000171592B9690" class="l69d44" points="143.2,162.2 145.2,162.2 145.2,164.2 143.2,164.2"/>
<polygon id="00000171592B99A0" class="l69d44" points="98.2,135 100.2,135 100.2,137 98.2,137"/>
<polygon id="00000171592B9700" class="l69d44" points="102.2,135 104.2,135 104.2,137 102.2,137"/>
<polygon id="00000171592B93F0" class="l69d44" points="106.2,135 108.2,135 108.2,137 106.2,137"/>
<polygon id="00000171592B9C40" class="l69d44" points="110.2,135 112.2,135 112.2,137 110.2,137"/>
<polygon id="00000171592B8E40" class="l69d44" points="131.2,107.8 133.2,107.8 133.2,109.8 131.2,109.8"/>
<polygon id="00000171592B8C10" class="l69d44" points="135.2,107.8 137.2,107.8 137.2,109.8 135.2,109.8"/>
<polygon id="00000171592B8580" class="l69d44" points="139.2,107.8 141.2,107.8 141.2,109.8 139.2,109.8"/>
<polygon id="00000171592B8510" class="l69d44" points="143.2,107.8 145.2,107.8 145.2,109.8 143.2,109.8"/>
<polygon id="00000171592B9EE0" class="l70d20" points="97.3,460.75 113.1,460.75 113.1,464.05 97.3,464.05"/>
<polygon id="00000171592B9770" class="l70d20" points="130.3,433.55 146.1,433.55 146.1,436.85 130.3,436.85"/>
<polygon id="00000171592B85F0" class="l70d20" points="97.3,406.35 113.1,406.35 113.1,409.65 97.3,409.65"/>
<polygon id="00000171592B8CF0" class="l70d20" points="130.3,379.15 146.1,379.15 146.1,382.45 130.3,382.45"/>
<polygon id="00000171592B8660" class="l70d20" points="97.3,351.95 113.1,351.95 113.1,355.25 97.3,355.25"/>
<polygon id="00000171592B9230" class="l70d20" points="130.3,324.75 146.1,324.75 146.1,328.05 130.3,328.05"/>
<polygon id="00000171592B8740" class="l70d20" points="97.3,297.55 113.1,297.55 113.1,300.85 97.3,300.85"/>
<polygon id="00000171592B83C0" class="l70d20" points="130.3,270.35 146.1,270.35 146.1,273.65 130.3,273.65"/>
<polygon id="00000171592B8970" class="l70d20" points="97.3,243.15 113.1,243.15 113.1,246.45 97.3,246.45"/>
<polygon id="00000171592B9F50" class="l70d20" points="130.3,215.95 146.1,215.95 146.1,219.25 130.3,219.25"/>
<polygon id="00000171592B8D60" class="l70d20" points="97.3,188.75 113.1,188.75 113.1,192.05 97.3,192.05"/>
<polygon id="00000171592B90E0" class="l70d20" points="130.3,161.55 146.1,161.55 146.1,164.85 130.3,164.85"/>
<polygon id="00000171592B8430" class="l70d20" points="97.3,134.35 113.1,134.35 113.1,137.65 97.3,137.65"/>
<polygon id="00000171592B89E0" class="l70d20" points="130.3,107.15 146.1,107.15 146.1,110.45 130.3,110.45"/>
<polygon id="00000171592B9150" class="l70d44" points="98.2,461.4 100.2,461.4 100.2,463.4 98.2,463.4"/>
<polygon id="00000171592B95B0" class="l70d44" points="102.2,461.4 104.2,461.4 104.2,463.4 102.2,463.4"/>
<polygon id="00000171592B87B0" class="l70d44" points="106.2,461.4 108.2,461.4 108.2,463.4 106.2,463.4"/>
<polygon id="00000171592B98C0" class="l70d44" points="110.2,461.4 112.2,461.4 112.2,463.4 110.2,463.4"/>
<polygon id="00000171592B9CB0" class="l70d44" points="131.2,434.2 133.2,434.2 133.2,436.2 131.2,436.2"/>
<polygon id="00000171592B91C0" class="l70d44" points="135.2,434.2 137.2,434.2 137.2,436.2 135.2,436.2"/>
<polygon id="00000171592B9460" class="l70d44" points="139.2,434.2 141.2,434.2 141.2,436.2 139.2,436.2"/>
<polygon id="00000171592B97E0" class="l70d44" points="143.2,434.2 145.2,434.2 145.2,436.2 143.2,436.2"/>
<polygon id="00000171592B8BA0" class="l70d44" points="98.2,407 100.2,407 100.2,409 98.2,409"/>
<polygon id="00000171592B9D20" class="l70d44" points="102.2,407 104.2,407 104.2,409 102.2,409"/>
<polygon id="00000171592B9850" class="l70d44" points="106.2,407 108.2,407 108.2,409 106.2,409"/>
<polygon id="00000171592B92A0" class="l70d44" points="110.2,407 112.2,407 112.2,409 110.2,409"/>
<polygon id="00000171592B84A0" class="l70d44" points="131.2,379.8 133.2,379.8 133.2,381.8 131.2,381.8"/>
<polygon id="00000171592B8A50" class="l70d44" points="135.2,379.8 137.2,379.8 137.2,381.8 135.2,381.8"/>
<polygon id="00000171592B8820" class="l70d44" points="139.2,379.8 141.2,379.8 141.2,381.8 139.2,381.8"/>
<polygon id="00000171592B8890" class="l70d44" points="143.2,379.8 145.2,379.8 145.2,381.8 143.2,381.8"/>
<polygon id="00000171592B8900" class="l70d44" points="98.2,352.6 100.2,352.6 100.2,354.6 98.2,354.6"/>
<polygon id="00000171592B9540" class="l70d44" points="102.2,352.6 104.2,352.6 104.2,354.6 102.2,354.6"/>
<polygon id="00000171592B9380" class="l70d44" points="106.2,352.6 108.2,352.6 108.2,354.6 106.2,354.6"/>
<polygon id="00000171592B8AC0" class="l70d44" points="110.2,352.6 112.2,352.6 112.2,354.6 110.2,354.6"/>
<polygon id="00000171592B8B30" class="l70d44" points="131.2,325.4 133.2,325.4 133.2,327.4 131.2,327.4"/>
<polygon id="00000171592B8F90" class="l70d44" points="135.2,325.4 137.2,325.4 137.2,327.4 135.2,327.4"/>
<polygon id="00000171592B9930" class="l70d44" points="139.2,325.4 141.2,325.4 141.2,327.4 139.2,327.4"/>
<polygon id="00000171592B8C80" class="l70d44" points="143.2,325.4 145.2,325.4 145.2,327.4 143.2,327.4"/>
<polygon id="00000171592B94D0" class="l70d44" points="98.2,298.2 100.2,298.2 100.2,300.2 98.2,300.2"/>
<polygon id="00000171592B8DD0" class="l70d44" points="102.2,298.2 104.2,298.2 104.2,300.2 102.2,300.2"/>
<polygon id="00000171592B9A10" class="l70d44" points="106.2,298.2 108.2,298.2 108.2,300.2 106.2,300.2"/>
<polygon id="00000171592B8EB0" class="l70d44" points="110.2,298.2 112.2,298.2 112.2,300.2 110.2,300.2"/>
<polygon id="00000171592B9000" class="l70d44" points="131.2,271 133.2,271 133.2,273 131.2,273"/>
<polygon id="00000171592B9A80" class="l70d44" points="135.2,271 137.2,271 137.2,273 135.2,273"/>
<polygon id="00000171592B9AF0" class="l70d44" points="139.2,271 141.2,271 141.2,273 139.2,273"/>
<polygon id="00000171592B9B60" class="l70d44" points="143.2,271 145.2,271 145.2,273 143.2,273"/>
<polygon id="00000171592B9D90" class="l70d44" points="98.2,243.8 100.2,243.8 100.2,245.8 98.2,245.8"/>
<polygon id="00000171592BBB50" class="l70d44" points="102.2,243.8 104.2,243.8 104.2,245.8 102.2,245.8"/>
<polygon id="00000171592BAD50" class="l70d44" points="106.2,243.8 108.2,243.8 108.2,245.8 106.2,245.8"/>
<polygon id="00000171592BA260" class="l70d44" points="110.2,243.8 112.2,243.8 112.2,245.8 110.2,245.8"/>
<polygon id="00000171592BA730" class="l70d44" points="131.2,216.6 133.2,216.6 133.2,218.6 131.2,218.6"/>
<polygon id="00000171592BA340" class="l70d44" points="135.2,216.6 137.2,216.6 137.2,218.6 135.2,218.6"/>
<polygon id="00000171592BAB90" class="l70d44" points="139.2,216.6 141.2,216.6 141.2,218.6 139.2,218.6"/>
<polygon id="00000171592BBA70" class="l70d44" points="143.2,216.6 145.2,216.6 145.2,218.6 143.2,218.6"/>
<polygon id="00000171592BB300" class="l70d44" points="98.2,189.4 100.2,189.4 100.2,191.4 98.2,191.4"/>
<polygon id="00000171592BA420" class="l70d44" points="102.2,189.4 104.2,189.4 104.2,191.4 102.2,191.4"/>
<polygon id="00000171592BAB20" class="l70d44" points="106.2,189.4 108.2,189.4 108.2,191.4 106.2,191.4"/>
<polygon id="00000171592B9FC0" class="l70d44" points="110.2,189.4 112.2,189.4 112.2,191.4 110.2,191.4"/>
<polygon id="00000171592BB760" class="l70d44" points="131.2,162.2 133.2,162.2 133.2,164.2 131.2,164.2"/>
<polygon id="00000171592BBA00" class="l70d44" points="135.2,162.2 137.2,162.2 137.2,164.2 135.2,164.2"/>
<polygon id="00000171592BB220" class="l70d44" points="139.2,162.2 141.2,162.2 141.2,164.2 139.2,164.2"/>
<polygon id="00000171592BB610" class="l70d44" points="143.2,162.2 145.2,162.2 145.2,164.2 143.2,164.2"/>
<polygon id="00000171592BAA40" class="l70d44" points="98.2,135 100.2,135 100.2,137 98.2,137"/>
<polygon id="00000171592BA5E0" class="l70d44" points="102.2,135 104.2,135 104.2,137 102.2,137"/>
<polygon id="00000171592BB3E0" class="l70d44" points="106.2,135 108.2,135 108.2,137 106.2,137"/>
<polygon id="00000171592BB990" class="l70d44" points="110.2,135 112.2,135 112.2,137 110.2,137"/>
<polygon id="00000171592BAFF0" class="l70d44" points="131.2,107.8 133.2,107.8 133.2,109.8 131.2,109.8"/>
<polygon id="00000171592BA9D0" class="l70d44" points="135.2,107.8 137.2,107.8 137.2,109.8 135.2,109.8"/>
<polygon id="00000171592BB290" class="l70d44" points="139.2,107.8 141.2,107.8 141.2,109.8 139.2,109.8"/>
<polygon id="00000171592BB370" class="l70d44" points="143.2,107.8 145.2,107.8 145.2,109.8 143.2,109.8"/>
<polygon id="00000171592BB8B0" class="l71d20" points="97.2,106.4 113.2,106.4 113.2,464.8 97.2,464.8"/>
<polygon id="00000171592BA030" class="l71d20" points="130.2,106.4 146.2,106.4 146.2,464.8 130.2,464.8"/>
<polygon id="00000171592BB450" class="l71d16" points="130.2,106.4 146.2,106.4 146.2,464.8 130.2,464.8"/>
<polygon id="00000171592BB840" class="l71d16" points="97.2,106.4 113.2,106.4 113.2,464.8 97.2,464.8"/>
<polygon id="00000171592BB680" class="l69d16" points="322.9,531.2 325.7,531.2 325.7,571.2 322.9,571.2"/>
<polygon id="00000171592BA180" class="l69d16" points="0.9,0 3.7,0 3.7,40 0.9,40"/>
<use transform="translate(96.6 108.8)" xlink:href="#sky130_ef_sc_hd__decap_12"/>
<use transform="translate(69 163.2) scale(1 -1)" xlink:href="#sky130_ef_sc_hd__decap_12"/>
<use transform="translate(55.2 108.8)" xlink:href="#sky130_fd_sc_hd__decap_3"/>
<use transform="translate(55.2 163.2) scale(1 -1)" xlink:href="#sky130_fd_sc_hd__decap_3"/>
<use transform="translate(96.6 108.8) rotate(180) scale(1 -1)" xlink:href="#sky130_fd_sc_hd__clkbuf_4"/>
<use transform="translate(151.8 108.8)" xlink:href="#sky130_fd_sc_hd__decap_6"/>
<use transform="translate(124.2 163.2) scale(1 -1)" xlink:href="#sky130_ef_sc_hd__decap_12"/>
<use transform="translate(179.4 108.8)" xlink:href="#sky130_fd_sc_hd__fill_1"/>
<use transform="translate(188.6 108.8)" xlink:href="#sky130_ef_sc_hd__decap_12"/>
<use transform="translate(179.4 163.2) scale(1 -1)" xlink:href="#sky130_fd_sc_hd__decap_6"/>
<use transform="translate(207 163.2) scale(1 -1)" xlink:href="#sky130_fd_sc_hd__fill_1"/>
<use transform="translate(225.4 163.2) scale(1 -1)" xlink:href="#sky130_fd_sc_hd__decap_8"/>
<use transform="translate(184 108.8)" xlink:href="#sky130_fd_sc_hd__tapvpwrvgnd_1"/>
<use transform="translate(225.4 163.2) rotate(180)" xlink:href="#sky130_fd_sc_hd__inv_2"/>
<use transform="translate(243.8 108.8)" xlink:href="#sky130_fd_sc_hd__decap_6"/>
<use transform="translate(271.4 108.8)" xlink:href="#sky130_fd_sc_hd__fill_1"/>
<use transform="translate(262.2 163.2) scale(1 -1)" xlink:href="#sky130_fd_sc_hd__decap_3"/>
<use transform="translate(289.8 108.8) rotate(180) scale(1 -1)" xlink:href="#sky130_fd_sc_hd__decap_3"/>
<use transform="translate(289.8 163.2) rotate(180)" xlink:href="#sky130_fd_sc_hd__decap_3"/>
<use transform="translate(69 163.2)" xlink:href="#sky130_ef_sc_hd__decap_12"/>
<use transform="translate(55.2 163.2)" xlink:href="#sky130_fd_sc_hd__decap_3"/>
<use transform="translate(124.2 163.2)" xlink:href="#sky130_ef_sc_hd__decap_12"/>
<use transform="translate(179.4 163.2)" xlink:href="#sky130_fd_sc_hd__fill_1"/>
<use transform="translate(188.6 163.2)" xlink:href="#sky130_ef_sc_hd__decap_12"/>
<use transform="translate(184 163.2)" xlink:href="#sky130_fd_sc_hd__tapvpwrvgnd_1"/>
<use transform="translate(243.8 163.2)" xlink:href="#sky130_fd_sc_hd__decap_6"/>
<use transform="translate(271.4 163.2)" xlink:href="#sky130_fd_sc_hd__fill_1"/>
<use transform="translate(289.8 163.2) rotate(180) scale(1 -1)" xlink:href="#sky130_fd_sc_hd__decap_3"/>
<use transform="translate(69 217.6) scale(1 -1)" xlink:href="#sky130_ef_sc_hd__decap_12"/>
<use transform="translate(55.2 217.6) scale(1 -1)" xlink:href="#sky130_fd_sc_hd__decap_3"/>
<use transform="translate(124.2 217.6) scale(1 -1)" xlink:href="#sky130_ef_sc_hd__decap_12"/>
<use transform="translate(179.4 217.6) scale(1 -1)" xlink:href="#sky130_ef_sc_hd__decap_12"/>
<use transform="translate(234.6 217.6) scale(1 -1)" xlink:href="#sky130_fd_sc_hd__decap_8"/>
<use transform="translate(271.4 217.6) scale(1 -1)" xlink:href="#sky130_fd_sc_hd__fill_1"/>
<use transform="translate(289.8 217.6) rotate(180)" xlink:href="#sky130_fd_sc_hd__decap_3"/>
<use transform="translate(69 217.6)" xlink:href="#sky130_ef_sc_hd__decap_12"/>
<use transform="translate(55.2 217.6)" xlink:href="#sky130_fd_sc_hd__decap_3"/>
<use transform="translate(124.2 217.6)" xlink:href="#sky130_ef_sc_hd__decap_12"/>
<use transform="translate(179.4 217.6)" xlink:href="#sky130_fd_sc_hd__fill_1"/>
<use transform="translate(188.6 217.6)" xlink:href="#sky130_ef_sc_hd__decap_12"/>
<use transform="translate(184 217.6)" xlink:href="#sky130_fd_sc_hd__tapvpwrvgnd_1"/>
<use transform="translate(243.8 217.6)" xlink:href="#sky130_fd_sc_hd__decap_6"/>
<use transform="translate(271.4 217.6)" xlink:href="#sky130_fd_sc_hd__fill_1"/>
<use transform="translate(289.8 217.6) rotate(180) scale(1 -1)" xlink:href="#sky130_fd_sc_hd__decap_3"/>
<use transform="translate(69 272) scale(1 -1)" xlink:href="#sky130_ef_sc_hd__decap_12"/>
<use transform="translate(55.2 272) scale(1 -1)" xlink:href="#sky130_fd_sc_hd__decap_3"/>
<use transform="translate(124.2 272) scale(1 -1)" xlink:href="#sky130_ef_sc_hd__decap_12"/>
<use transform="translate(179.4 272) scale(1 -1)" xlink:href="#sky130_ef_sc_hd__decap_12"/>
<use transform="translate(234.6 272) scale(1 -1)" xlink:href="#sky130_fd_sc_hd__decap_8"/>
<use transform="translate(271.4 272) scale(1 -1)" xlink:href="#sky130_fd_sc_hd__fill_1"/>
<use transform="translate(289.8 272) rotate(180)" xlink:href="#sky130_fd_sc_hd__decap_3"/>
<use transform="translate(69 272)" xlink:href="#sky130_ef_sc_hd__decap_12"/>
<use transform="translate(69 326.4) scale(1 -1)" xlink:href="#sky130_ef_sc_hd__decap_12"/>
<use transform="translate(55.2 272)" xlink:href="#sky130_fd_sc_hd__decap_3"/>
<use transform="translate(55.2 326.4) scale(1 -1)" xlink:href="#sky130_fd_sc_hd__decap_3"/>
<use transform="translate(124.2 272)" xlink:href="#sky130_ef_sc_hd__decap_12"/>
<use transform="translate(124.2 326.4) scale(1 -1)" xlink:href="#sky130_ef_sc_hd__decap_12"/>
<use transform="translate(179.4 272)" xlink:href="#sky130_fd_sc_hd__fill_1"/>
<use transform="translate(188.6 272)" xlink:href="#sky130_ef_sc_hd__decap_12"/>
<use transform="translate(179.4 326.4) scale(1 -1)" xlink:href="#sky130_ef_sc_hd__decap_12"/>
<use transform="translate(184 272)" xlink:href="#sky130_fd_sc_hd__tapvpwrvgnd_1"/>
<use transform="translate(243.8 272)" xlink:href="#sky130_fd_sc_hd__decap_6"/>
<use transform="translate(271.4 272)" xlink:href="#sky130_fd_sc_hd__fill_1"/>
<use transform="translate(234.6 326.4) scale(1 -1)" xlink:href="#sky130_fd_sc_hd__decap_8"/>
<use transform="translate(271.4 326.4) scale(1 -1)" xlink:href="#sky130_fd_sc_hd__fill_1"/>
<use transform="translate(289.8 272) rotate(180) scale(1 -1)" xlink:href="#sky130_fd_sc_hd__decap_3"/>
<use transform="translate(289.8 326.4) rotate(180)" xlink:href="#sky130_fd_sc_hd__decap_3"/>
<use transform="translate(69 326.4)" xlink:href="#sky130_ef_sc_hd__decap_12"/>
<use transform="translate(55.2 326.4)" xlink:href="#sky130_fd_sc_hd__decap_3"/>
<use transform="translate(124.2 326.4)" xlink:href="#sky130_ef_sc_hd__decap_12"/>
<use transform="translate(179.4 326.4)" xlink:href="#sky130_fd_sc_hd__fill_1"/>
<use transform="translate(188.6 326.4)" xlink:href="#sky130_ef_sc_hd__decap_12"/>
<use transform="translate(184 326.4)" xlink:href="#sky130_fd_sc_hd__tapvpwrvgnd_1"/>
<use transform="translate(243.8 326.4)" xlink:href="#sky130_fd_sc_hd__decap_6"/>
<use transform="translate(271.4 326.4)" xlink:href="#sky130_fd_sc_hd__fill_1"/>
<use transform="translate(289.8 326.4) rotate(180) scale(1 -1)" xlink:href="#sky130_fd_sc_hd__decap_3"/>
<use transform="translate(69 380.8) scale(1 -1)" xlink:href="#sky130_ef_sc_hd__decap_12"/>
<use transform="translate(55.2 380.8) scale(1 -1)" xlink:href="#sky130_fd_sc_hd__decap_3"/>
<use transform="translate(124.2 380.8) scale(1 -1)" xlink:href="#sky130_ef_sc_hd__decap_12"/>
<use transform="translate(179.4 380.8) scale(1 -1)" xlink:href="#sky130_ef_sc_hd__decap_12"/>
<use transform="translate(234.6 380.8) scale(1 -1)" xlink:href="#sky130_fd_sc_hd__decap_8"/>
<use transform="translate(271.4 380.8) scale(1 -1)" xlink:href="#sky130_fd_sc_hd__fill_1"/>
<use transform="translate(289.8 380.8) rotate(180)" xlink:href="#sky130_fd_sc_hd__decap_3"/>
<use transform="translate(69 380.8)" xlink:href="#sky130_ef_sc_hd__decap_12"/>
<use transform="translate(55.2 380.8)" xlink:href="#sky130_fd_sc_hd__decap_3"/>
<use transform="translate(124.2 380.8)" xlink:href="#sky130_ef_sc_hd__decap_12"/>
<use transform="translate(179.4 380.8)" xlink:href="#sky130_fd_sc_hd__fill_1"/>
<use transform="translate(188.6 380.8)" xlink:href="#sky130_ef_sc_hd__decap_12"/>
<use transform="translate(184 380.8)" xlink:href="#sky130_fd_sc_hd__tapvpwrvgnd_1"/>
<use transform="translate(243.8 380.8)" xlink:href="#sky130_fd_sc_hd__decap_6"/>
<use transform="translate(271.4 380.8)" xlink:href="#sky130_fd_sc_hd__fill_1"/>
<use transform="translate(289.8 380.8) rotate(180) scale(1 -1)" xlink:href="#sky130_fd_sc_hd__decap_3"/>
<use transform="translate(69 435.2) scale(1 -1)" xlink:href="#sky130_ef_sc_hd__decap_12"/>
<use transform="translate(55.2 435.2) scale(1 -1)" xlink:href="#sky130_fd_sc_hd__decap_3"/>
<use transform="translate(124.2 435.2) scale(1 -1)" xlink:href="#sky130_ef_sc_hd__decap_12"/>
<use transform="translate(179.4 435.2) scale(1 -1)" xlink:href="#sky130_ef_sc_hd__decap_12"/>
<use transform="translate(234.6 435.2) scale(1 -1)" xlink:href="#sky130_fd_sc_hd__decap_8"/>
<use transform="translate(271.4 435.2) scale(1 -1)" xlink:href="#sky130_fd_sc_hd__fill_1"/>
<use transform="translate(289.8 435.2) rotate(180)" xlink:href="#sky130_fd_sc_hd__decap_3"/>
<use transform="translate(69 435.2)" xlink:href="#sky130_ef_sc_hd__decap_12"/>
<use transform="translate(55.2 435.2)" xlink:href="#sky130_fd_sc_hd__decap_3"/>
<use transform="translate(124.2 435.2)" xlink:href="#sky130_ef_sc_hd__decap_12"/>
<use transform="translate(179.4 435.2)" xlink:href="#sky130_fd_sc_hd__fill_1"/>
<use transform="translate(188.6 435.2)" xlink:href="#sky130_ef_sc_hd__decap_12"/>
<use transform="translate(184 435.2)" xlink:href="#sky130_fd_sc_hd__tapvpwrvgnd_1"/>
<use transform="translate(243.8 435.2)" xlink:href="#sky130_fd_sc_hd__decap_4"/>
<use transform="translate(289.8 435.2) rotate(180) scale(1 -1)" xlink:href="#sky130_fd_sc_hd__decap_3"/>
<use transform="translate(276 435.2) rotate(180) scale(1 -1)" xlink:href="#sky130_fd_sc_hd__buf_1"/>
<text id="0000017159BF7C50" class="l68t5" text-anchor="start" dominant-baseline="text-before-edge" transform="translate(172.5 435.2) scale(1 -1)">VGND</text>
<text id="0000017159BF8310" class="l68t5" text-anchor="start" dominant-baseline="text-before-edge" transform="translate(172.5 462.4) scale(1 -1)">VPWR</text>
<text id="0000017159BF8AF0" class="l68t5" text-anchor="start" dominant-baseline="text-before-edge" transform="translate(299 447.1) scale(1 -1)">in</text>
<text id="0000017159BF6F60" class="l68t5" text-anchor="start" dominant-baseline="text-before-edge" transform="translate(243.8 151.3) scale(1 -1)">net1</text>
<text id="0000017159BF73E0" class="l68t5" text-anchor="start" dominant-baseline="text-before-edge" transform="translate(154.1 120.7) scale(1 -1)">net2</text>
<text id="0000017159BF84C0" class="l69t5" text-anchor="start" dominant-baseline="text-before-edge" transform="translate(2.3 77.7) scale(1 -1)">out</text>
<text id="0000017159BF8790" class="l71t5" text-anchor="middle" dominant-baseline="central" transform="translate(138.2 285.6) rotate(90) scale(1.2) scale(1 -1)">VGND</text>
<text id="0000017159BF81F0" class="l71t5" text-anchor="middle" dominant-baseline="central" transform="translate(105.2 285.6) rotate(90) scale(1.2) scale(1 -1)">VPWR</text>
<text id="0000017159BF7A10" class="l69t5" text-anchor="middle" dominant-baseline="central" transform="translate(324.3 551.2) rotate(90) scale(0.14) scale(1 -1)">in</text>
<text id="0000017159BF8550" class="l69t5" text-anchor="middle" dominant-baseline="central" transform="translate(2.3 20) rotate(90) scale(0.14) scale(1 -1)">out</text>
</g>
</svg>